<svg xmlns="http://www.w3.org/2000/svg" xmlns:xlink="http://www.w3.org/1999/xlink" width="500" zoomAndPan="magnify" viewBox="0 0 375 374.999991" height="500" preserveAspectRatio="xMidYMid meet" version="1.2"><defs><clipPath id="8d3bf1289f"><path d="M 17.25 0 L 357.75 0 C 362.324219 0 366.710938 1.816406 369.949219 5.050781 C 373.183594 8.289062 375 12.675781 375 17.25 L 375 357.75 C 375 362.324219 373.183594 366.710938 369.949219 369.949219 C 366.710938 373.183594 362.324219 375 357.75 375 L 17.25 375 C 12.675781 375 8.289062 373.183594 5.050781 369.949219 C 1.816406 366.710938 0 362.324219 0 357.75 L 0 17.25 C 0 12.675781 1.816406 8.289062 5.050781 5.050781 C 8.289062 1.816406 12.675781 0 17.25 0 Z M 17.25 0 "/></clipPath><clipPath id="da44916bad"><path d="M 131.25 131.25 L 243.75 131.25 L 243.75 243.75 L 131.25 243.75 Z M 131.25 131.25 "/></clipPath><clipPath id="e49141e925"><path d="M 187.5 131.25 C 156.433594 131.25 131.25 156.433594 131.25 187.5 C 131.25 218.566406 156.433594 243.75 187.5 243.75 C 218.566406 243.75 243.75 218.566406 243.75 187.5 C 243.75 156.433594 218.566406 131.25 187.5 131.25 Z M 187.5 131.25 "/></clipPath><clipPath id="f0cdd9fc98"><path d="M 163.019531 57.8125 L 211.980469 57.8125 L 211.980469 106.769531 L 163.019531 106.769531 Z M 163.019531 57.8125 "/></clipPath><clipPath id="2146bf59ab"><path d="M 187.5 57.8125 C 173.980469 57.8125 163.019531 68.769531 163.019531 82.289062 C 163.019531 95.808594 173.980469 106.769531 187.5 106.769531 C 201.019531 106.769531 211.980469 95.808594 211.980469 82.289062 C 211.980469 68.769531 201.019531 57.8125 187.5 57.8125 Z M 187.5 57.8125 "/></clipPath><clipPath id="56057c43a8"><path d="M 82.019531 106.769531 L 130.980469 106.769531 L 130.980469 155.730469 L 82.019531 155.730469 Z M 82.019531 106.769531 "/></clipPath><clipPath id="46ce3a54f8"><path d="M 106.5 106.769531 C 92.980469 106.769531 82.019531 117.730469 82.019531 131.25 C 82.019531 144.769531 92.980469 155.730469 106.5 155.730469 C 120.019531 155.730469 130.980469 144.769531 130.980469 131.25 C 130.980469 117.730469 120.019531 106.769531 106.5 106.769531 Z M 106.5 106.769531 "/></clipPath><clipPath id="1bd9ab71af"><path d="M 167 79 L 311 79 L 311 200 L 167 200 Z M 167 79 "/></clipPath><clipPath id="fb1423385b"><path d="M 163.019531 187.683594 L 302.5625 75.542969 L 314.910156 90.90625 L 175.367188 203.046875 Z M 163.019531 187.683594 "/></clipPath><clipPath id="5cdd76792d"><path d="M 170.703125 181.507812 L 294.820312 81.761719 C 299.0625 78.355469 305.265625 79.027344 308.675781 83.273438 C 312.085938 87.515625 311.410156 93.71875 307.167969 97.128906 L 183.050781 196.871094 C 178.804688 200.28125 172.601562 199.605469 169.191406 195.363281 C 165.785156 191.121094 166.457031 184.917969 170.703125 181.507812 Z M 170.703125 181.507812 "/></clipPath><clipPath id="4b7a6d382d"><path d="M 57.539062 178.714844 L 106.5 178.714844 L 106.5 227.671875 L 57.539062 227.671875 Z M 57.539062 178.714844 "/></clipPath><clipPath id="0181029543"><path d="M 82.019531 178.714844 C 68.5 178.714844 57.539062 189.671875 57.539062 203.191406 C 57.539062 216.710938 68.5 227.671875 82.019531 227.671875 C 95.539062 227.671875 106.5 216.710938 106.5 203.191406 C 106.5 189.671875 95.539062 178.714844 82.019531 178.714844 Z M 82.019531 178.714844 "/></clipPath><clipPath id="4a7ef4270f"><path d="M 85.980469 253.316406 L 134.941406 253.316406 L 134.941406 302.273438 L 85.980469 302.273438 Z M 85.980469 253.316406 "/></clipPath><clipPath id="e40cdbac7b"><path d="M 110.460938 253.316406 C 96.941406 253.316406 85.980469 264.277344 85.980469 277.796875 C 85.980469 291.316406 96.941406 302.273438 110.460938 302.273438 C 123.980469 302.273438 134.941406 291.316406 134.941406 277.796875 C 134.941406 264.277344 123.980469 253.316406 110.460938 253.316406 Z M 110.460938 253.316406 "/></clipPath><clipPath id="9223524260"><path d="M 164.941406 277.796875 L 213.898438 277.796875 L 213.898438 326.753906 L 164.941406 326.753906 Z M 164.941406 277.796875 "/></clipPath><clipPath id="6df7f7e308"><path d="M 189.417969 277.796875 C 175.898438 277.796875 164.941406 288.753906 164.941406 302.273438 C 164.941406 315.792969 175.898438 326.753906 189.417969 326.753906 C 202.941406 326.753906 213.898438 315.792969 213.898438 302.273438 C 213.898438 288.753906 202.941406 277.796875 189.417969 277.796875 Z M 189.417969 277.796875 "/></clipPath><clipPath id="7de9ebca4c"><path d="M 268.230469 178.570312 L 317.1875 178.570312 L 317.1875 227.527344 L 268.230469 227.527344 Z M 268.230469 178.570312 "/></clipPath><clipPath id="c5c75a6e7d"><path d="M 292.710938 178.570312 C 279.191406 178.570312 268.230469 189.53125 268.230469 203.050781 C 268.230469 216.570312 279.191406 227.527344 292.710938 227.527344 C 306.230469 227.527344 317.1875 216.570312 317.1875 203.050781 C 317.1875 189.53125 306.230469 178.570312 292.710938 178.570312 Z M 292.710938 178.570312 "/></clipPath><clipPath id="52dbf08078"><path d="M 243.75 249.277344 L 292.710938 249.277344 L 292.710938 298.234375 L 243.75 298.234375 Z M 243.75 249.277344 "/></clipPath><clipPath id="84e9b0dad5"><path d="M 268.230469 249.277344 C 254.710938 249.277344 243.75 260.234375 243.75 273.753906 C 243.75 287.273438 254.710938 298.234375 268.230469 298.234375 C 281.75 298.234375 292.710938 287.273438 292.710938 273.753906 C 292.710938 260.234375 281.75 249.277344 268.230469 249.277344 Z M 268.230469 249.277344 "/></clipPath></defs><g id="d6c517e3d9"><g clip-rule="nonzero" clip-path="url(#8d3bf1289f)"><rect x="0" width="375" y="0" height="374.999991" style="fill:#f522b0;fill-opacity:1;stroke:none;"/></g><g clip-rule="nonzero" clip-path="url(#da44916bad)"><g clip-rule="nonzero" clip-path="url(#e49141e925)"><path style=" stroke:none;fill-rule:nonzero;fill:#3d393b;fill-opacity:1;" d="M 131.25 131.25 L 243.75 131.25 L 243.75 243.75 L 131.25 243.75 Z M 131.25 131.25 "/></g></g><g clip-rule="nonzero" clip-path="url(#f0cdd9fc98)"><g clip-rule="nonzero" clip-path="url(#2146bf59ab)"><path style=" stroke:none;fill-rule:nonzero;fill:#3d393b;fill-opacity:1;" d="M 163.019531 57.8125 L 211.980469 57.8125 L 211.980469 106.769531 L 163.019531 106.769531 Z M 163.019531 57.8125 "/></g></g><g clip-rule="nonzero" clip-path="url(#56057c43a8)"><g clip-rule="nonzero" clip-path="url(#46ce3a54f8)"><path style=" stroke:none;fill-rule:nonzero;fill:#3d393b;fill-opacity:1;" d="M 82.019531 106.769531 L 130.980469 106.769531 L 130.980469 155.730469 L 82.019531 155.730469 Z M 82.019531 106.769531 "/></g></g><g clip-rule="nonzero" clip-path="url(#1bd9ab71af)"><g clip-rule="nonzero" clip-path="url(#fb1423385b)"><g clip-rule="nonzero" clip-path="url(#5cdd76792d)"><path style=" stroke:none;fill-rule:nonzero;fill:#3d393b;fill-opacity:1;" d="M 163.019531 187.683594 L 302.5 75.589844 L 314.847656 90.957031 L 175.367188 203.046875 Z M 163.019531 187.683594 "/></g></g></g><g clip-rule="nonzero" clip-path="url(#4b7a6d382d)"><g clip-rule="nonzero" clip-path="url(#0181029543)"><path style=" stroke:none;fill-rule:nonzero;fill:#3d393b;fill-opacity:1;" d="M 57.539062 178.714844 L 106.5 178.714844 L 106.5 227.671875 L 57.539062 227.671875 Z M 57.539062 178.714844 "/></g></g><g clip-rule="nonzero" clip-path="url(#4a7ef4270f)"><g clip-rule="nonzero" clip-path="url(#e40cdbac7b)"><path style=" stroke:none;fill-rule:nonzero;fill:#3d393b;fill-opacity:1;" d="M 85.980469 253.316406 L 134.941406 253.316406 L 134.941406 302.273438 L 85.980469 302.273438 Z M 85.980469 253.316406 "/></g></g><g clip-rule="nonzero" clip-path="url(#9223524260)"><g clip-rule="nonzero" clip-path="url(#6df7f7e308)"><path style=" stroke:none;fill-rule:nonzero;fill:#3d393b;fill-opacity:1;" d="M 164.941406 277.796875 L 213.898438 277.796875 L 213.898438 326.753906 L 164.941406 326.753906 Z M 164.941406 277.796875 "/></g></g><g clip-rule="nonzero" clip-path="url(#7de9ebca4c)"><g clip-rule="nonzero" clip-path="url(#c5c75a6e7d)"><path style=" stroke:none;fill-rule:nonzero;fill:#3d393b;fill-opacity:1;" d="M 268.230469 178.570312 L 317.1875 178.570312 L 317.1875 227.527344 L 268.230469 227.527344 Z M 268.230469 178.570312 "/></g></g><g clip-rule="nonzero" clip-path="url(#52dbf08078)"><g clip-rule="nonzero" clip-path="url(#84e9b0dad5)"><path style=" stroke:none;fill-rule:nonzero;fill:#3d393b;fill-opacity:1;" d="M 243.75 249.277344 L 292.710938 249.277344 L 292.710938 298.234375 L 243.75 298.234375 Z M 243.75 249.277344 "/></g></g></g></svg>