<svg xmlns="http://www.w3.org/2000/svg" xmlns:xlink="http://www.w3.org/1999/xlink" width="500" zoomAndPan="magnify" viewBox="0 0 375 374.999991" height="500" preserveAspectRatio="xMidYMid meet" version="1.0"><defs><clipPath id="662491ae12"><path d="M 27 39 L 101.359375 39 L 101.359375 106.566406 L 27 106.566406 Z M 27 39 " clip-rule="nonzero"/></clipPath><clipPath id="c2319ce90d"><path d="M 44.355469 39.160156 L 83.996094 39.160156 C 88.570312 39.160156 92.960938 40.976562 96.195312 44.210938 C 99.429688 47.445312 101.246094 51.835938 101.246094 56.410156 L 101.246094 89.316406 C 101.246094 93.890625 99.429688 98.277344 96.195312 101.515625 C 92.960938 104.75 88.570312 106.566406 83.996094 106.566406 L 44.355469 106.566406 C 39.78125 106.566406 35.390625 104.75 32.15625 101.515625 C 28.921875 98.277344 27.105469 93.890625 27.105469 89.316406 L 27.105469 56.410156 C 27.105469 51.835938 28.921875 47.445312 32.15625 44.210938 C 35.390625 40.976562 39.78125 39.160156 44.355469 39.160156 Z M 44.355469 39.160156 " clip-rule="nonzero"/></clipPath><clipPath id="cfc8688fdd"><path d="M 0 0.121094 L 74.28125 0.121094 L 74.28125 67.566406 L 0 67.566406 Z M 0 0.121094 " clip-rule="nonzero"/></clipPath><clipPath id="481613cee7"><path d="M 17.355469 0.160156 L 56.996094 0.160156 C 61.570312 0.160156 65.960938 1.976562 69.195312 5.210938 C 72.429688 8.445312 74.246094 12.835938 74.246094 17.410156 L 74.246094 50.316406 C 74.246094 54.890625 72.429688 59.277344 69.195312 62.515625 C 65.960938 65.75 61.570312 67.566406 56.996094 67.566406 L 17.355469 67.566406 C 12.78125 67.566406 8.390625 65.75 5.15625 62.515625 C 1.921875 59.277344 0.105469 54.890625 0.105469 50.316406 L 0.105469 17.410156 C 0.105469 12.835938 1.921875 8.445312 5.15625 5.210938 C 8.390625 1.976562 12.78125 0.160156 17.355469 0.160156 Z M 17.355469 0.160156 " clip-rule="nonzero"/></clipPath><clipPath id="2766c3a639"><rect x="0" width="75" y="0" height="68"/></clipPath><clipPath id="c1cddf2633"><path d="M 109.058594 39 L 183.574219 39 L 183.574219 106.566406 L 109.058594 106.566406 Z M 109.058594 39 " clip-rule="nonzero"/></clipPath><clipPath id="bfca4cd13f"><path d="M 126.570312 39.160156 L 166.210938 39.160156 C 170.789062 39.160156 175.175781 40.976562 178.410156 44.210938 C 181.644531 47.445312 183.460938 51.835938 183.460938 56.410156 L 183.460938 89.316406 C 183.460938 93.890625 181.644531 98.277344 178.410156 101.515625 C 175.175781 104.75 170.789062 106.566406 166.210938 106.566406 L 126.570312 106.566406 C 121.996094 106.566406 117.609375 104.75 114.375 101.515625 C 111.136719 98.277344 109.320312 93.890625 109.320312 89.316406 L 109.320312 56.410156 C 109.320312 51.835938 111.136719 47.445312 114.375 44.210938 C 117.609375 40.976562 121.996094 39.160156 126.570312 39.160156 Z M 126.570312 39.160156 " clip-rule="nonzero"/></clipPath><clipPath id="8a8ad9016e"><path d="M 0.199219 0.121094 L 74.574219 0.121094 L 74.574219 67.566406 L 0.199219 67.566406 Z M 0.199219 0.121094 " clip-rule="nonzero"/></clipPath><clipPath id="8f8d9e6fde"><path d="M 17.570312 0.160156 L 57.210938 0.160156 C 61.789062 0.160156 66.175781 1.976562 69.410156 5.210938 C 72.644531 8.445312 74.460938 12.835938 74.460938 17.410156 L 74.460938 50.316406 C 74.460938 54.890625 72.644531 59.277344 69.410156 62.515625 C 66.175781 65.75 61.789062 67.566406 57.210938 67.566406 L 17.570312 67.566406 C 12.996094 67.566406 8.609375 65.75 5.375 62.515625 C 2.136719 59.277344 0.320312 54.890625 0.320312 50.316406 L 0.320312 17.410156 C 0.320312 12.835938 2.136719 8.445312 5.375 5.210938 C 8.609375 1.976562 12.996094 0.160156 17.570312 0.160156 Z M 17.570312 0.160156 " clip-rule="nonzero"/></clipPath><clipPath id="68f43948d1"><rect x="0" width="75" y="0" height="68"/></clipPath><clipPath id="d453169710"><path d="M 191.273438 39 L 265.789062 39 L 265.789062 106.566406 L 191.273438 106.566406 Z M 191.273438 39 " clip-rule="nonzero"/></clipPath><clipPath id="e10924ae5b"><path d="M 208.789062 39.160156 L 248.429688 39.160156 C 253.003906 39.160156 257.390625 40.976562 260.625 44.210938 C 263.863281 47.445312 265.679688 51.835938 265.679688 56.410156 L 265.679688 89.316406 C 265.679688 93.890625 263.863281 98.277344 260.625 101.515625 C 257.390625 104.75 253.003906 106.566406 248.429688 106.566406 L 208.789062 106.566406 C 204.210938 106.566406 199.824219 104.75 196.589844 101.515625 C 193.355469 98.277344 191.539062 93.890625 191.539062 89.316406 L 191.539062 56.410156 C 191.539062 51.835938 193.355469 47.445312 196.589844 44.210938 C 199.824219 40.976562 204.210938 39.160156 208.789062 39.160156 Z M 208.789062 39.160156 " clip-rule="nonzero"/></clipPath><clipPath id="6423375641"><path d="M 0.519531 0.121094 L 74.679688 0.121094 L 74.679688 67.566406 L 0.519531 67.566406 Z M 0.519531 0.121094 " clip-rule="nonzero"/></clipPath><clipPath id="151c3cca8b"><path d="M 17.789062 0.160156 L 57.429688 0.160156 C 62.003906 0.160156 66.390625 1.976562 69.625 5.210938 C 72.863281 8.445312 74.679688 12.835938 74.679688 17.410156 L 74.679688 50.316406 C 74.679688 54.890625 72.863281 59.277344 69.625 62.515625 C 66.390625 65.75 62.003906 67.566406 57.429688 67.566406 L 17.789062 67.566406 C 13.210938 67.566406 8.824219 65.75 5.589844 62.515625 C 2.355469 59.277344 0.539062 54.890625 0.539062 50.316406 L 0.539062 17.410156 C 0.539062 12.835938 2.355469 8.445312 5.589844 5.210938 C 8.824219 1.976562 13.210938 0.160156 17.789062 0.160156 Z M 17.789062 0.160156 " clip-rule="nonzero"/></clipPath><clipPath id="314b2c0b47"><rect x="0" width="75" y="0" height="68"/></clipPath><clipPath id="3bbe50f973"><path d="M 273.664062 39 L 348.183594 39 L 348.183594 106.566406 L 273.664062 106.566406 Z M 273.664062 39 " clip-rule="nonzero"/></clipPath><clipPath id="db1ddc5c33"><path d="M 291.179688 39.160156 L 330.820312 39.160156 C 335.394531 39.160156 339.78125 40.976562 343.019531 44.210938 C 346.253906 47.445312 348.070312 51.835938 348.070312 56.410156 L 348.070312 89.316406 C 348.070312 93.890625 346.253906 98.277344 343.019531 101.515625 C 339.78125 104.75 335.394531 106.566406 330.820312 106.566406 L 291.179688 106.566406 C 286.605469 106.566406 282.214844 104.75 278.980469 101.515625 C 275.746094 98.277344 273.929688 93.890625 273.929688 89.316406 L 273.929688 56.410156 C 273.929688 51.835938 275.746094 47.445312 278.980469 44.210938 C 282.214844 40.976562 286.605469 39.160156 291.179688 39.160156 Z M 291.179688 39.160156 " clip-rule="nonzero"/></clipPath><clipPath id="2ce73dd5bf"><path d="M 0.839844 0.121094 L 75.183594 0.121094 L 75.183594 67.566406 L 0.839844 67.566406 Z M 0.839844 0.121094 " clip-rule="nonzero"/></clipPath><clipPath id="4abaf02ae2"><path d="M 18.179688 0.160156 L 57.820312 0.160156 C 62.394531 0.160156 66.78125 1.976562 70.019531 5.210938 C 73.253906 8.445312 75.070312 12.835938 75.070312 17.410156 L 75.070312 50.316406 C 75.070312 54.890625 73.253906 59.277344 70.019531 62.515625 C 66.78125 65.75 62.394531 67.566406 57.820312 67.566406 L 18.179688 67.566406 C 13.605469 67.566406 9.214844 65.75 5.980469 62.515625 C 2.746094 59.277344 0.929688 54.890625 0.929688 50.316406 L 0.929688 17.410156 C 0.929688 12.835938 2.746094 8.445312 5.980469 5.210938 C 9.214844 1.976562 13.605469 0.160156 18.179688 0.160156 Z M 18.179688 0.160156 " clip-rule="nonzero"/></clipPath><clipPath id="bfc9955e66"><rect x="0" width="76" y="0" height="68"/></clipPath><clipPath id="42f8153587"><path d="M 27 115.355469 L 101.359375 115.355469 L 101.359375 183.027344 L 27 183.027344 Z M 27 115.355469 " clip-rule="nonzero"/></clipPath><clipPath id="8e062b3a58"><path d="M 44.355469 115.617188 L 83.996094 115.617188 C 88.570312 115.617188 92.960938 117.4375 96.195312 120.671875 C 99.429688 123.90625 101.246094 128.292969 101.246094 132.867188 L 101.246094 165.777344 C 101.246094 170.351562 99.429688 174.738281 96.195312 177.972656 C 92.960938 181.207031 88.570312 183.027344 83.996094 183.027344 L 44.355469 183.027344 C 39.78125 183.027344 35.390625 181.207031 32.15625 177.972656 C 28.921875 174.738281 27.105469 170.351562 27.105469 165.777344 L 27.105469 132.867188 C 27.105469 128.292969 28.921875 123.90625 32.15625 120.671875 C 35.390625 117.4375 39.78125 115.617188 44.355469 115.617188 Z M 44.355469 115.617188 " clip-rule="nonzero"/></clipPath><clipPath id="5263656dd7"><path d="M 0 0.441406 L 74.28125 0.441406 L 74.28125 68.027344 L 0 68.027344 Z M 0 0.441406 " clip-rule="nonzero"/></clipPath><clipPath id="0397668515"><path d="M 17.355469 0.617188 L 56.996094 0.617188 C 61.570312 0.617188 65.960938 2.4375 69.195312 5.671875 C 72.429688 8.90625 74.246094 13.292969 74.246094 17.867188 L 74.246094 50.777344 C 74.246094 55.351562 72.429688 59.738281 69.195312 62.972656 C 65.960938 66.207031 61.570312 68.027344 56.996094 68.027344 L 17.355469 68.027344 C 12.78125 68.027344 8.390625 66.207031 5.15625 62.972656 C 1.921875 59.738281 0.105469 55.351562 0.105469 50.777344 L 0.105469 17.867188 C 0.105469 13.292969 1.921875 8.90625 5.15625 5.671875 C 8.390625 2.4375 12.78125 0.617188 17.355469 0.617188 Z M 17.355469 0.617188 " clip-rule="nonzero"/></clipPath><clipPath id="2127c70feb"><rect x="0" width="75" y="0" height="69"/></clipPath><clipPath id="aa8a20e4a8"><path d="M 109.058594 115.355469 L 183.574219 115.355469 L 183.574219 183.027344 L 109.058594 183.027344 Z M 109.058594 115.355469 " clip-rule="nonzero"/></clipPath><clipPath id="f9dee616ab"><path d="M 126.570312 115.617188 L 166.210938 115.617188 C 170.789062 115.617188 175.175781 117.4375 178.410156 120.671875 C 181.644531 123.90625 183.460938 128.292969 183.460938 132.867188 L 183.460938 165.777344 C 183.460938 170.351562 181.644531 174.738281 178.410156 177.972656 C 175.175781 181.207031 170.789062 183.027344 166.210938 183.027344 L 126.570312 183.027344 C 121.996094 183.027344 117.609375 181.207031 114.375 177.972656 C 111.136719 174.738281 109.320312 170.351562 109.320312 165.777344 L 109.320312 132.867188 C 109.320312 128.292969 111.136719 123.90625 114.375 120.671875 C 117.609375 117.4375 121.996094 115.617188 126.570312 115.617188 Z M 126.570312 115.617188 " clip-rule="nonzero"/></clipPath><clipPath id="abf28eb938"><path d="M 0.199219 0.441406 L 74.574219 0.441406 L 74.574219 68.027344 L 0.199219 68.027344 Z M 0.199219 0.441406 " clip-rule="nonzero"/></clipPath><clipPath id="30e4a57477"><path d="M 17.570312 0.617188 L 57.210938 0.617188 C 61.789062 0.617188 66.175781 2.4375 69.410156 5.671875 C 72.644531 8.90625 74.460938 13.292969 74.460938 17.867188 L 74.460938 50.777344 C 74.460938 55.351562 72.644531 59.738281 69.410156 62.972656 C 66.175781 66.207031 61.789062 68.027344 57.210938 68.027344 L 17.570312 68.027344 C 12.996094 68.027344 8.609375 66.207031 5.375 62.972656 C 2.136719 59.738281 0.320312 55.351562 0.320312 50.777344 L 0.320312 17.867188 C 0.320312 13.292969 2.136719 8.90625 5.375 5.671875 C 8.609375 2.4375 12.996094 0.617188 17.570312 0.617188 Z M 17.570312 0.617188 " clip-rule="nonzero"/></clipPath><clipPath id="664a1096c7"><rect x="0" width="75" y="0" height="69"/></clipPath><clipPath id="033bf1f582"><path d="M 191.273438 115.355469 L 265.789062 115.355469 L 265.789062 183.027344 L 191.273438 183.027344 Z M 191.273438 115.355469 " clip-rule="nonzero"/></clipPath><clipPath id="553172c6ff"><path d="M 208.789062 115.617188 L 248.429688 115.617188 C 253.003906 115.617188 257.390625 117.4375 260.625 120.671875 C 263.863281 123.90625 265.679688 128.292969 265.679688 132.867188 L 265.679688 165.777344 C 265.679688 170.351562 263.863281 174.738281 260.625 177.972656 C 257.390625 181.207031 253.003906 183.027344 248.429688 183.027344 L 208.789062 183.027344 C 204.210938 183.027344 199.824219 181.207031 196.589844 177.972656 C 193.355469 174.738281 191.539062 170.351562 191.539062 165.777344 L 191.539062 132.867188 C 191.539062 128.292969 193.355469 123.90625 196.589844 120.671875 C 199.824219 117.4375 204.210938 115.617188 208.789062 115.617188 Z M 208.789062 115.617188 " clip-rule="nonzero"/></clipPath><clipPath id="c42ba7cd73"><path d="M 0.519531 0.441406 L 74.679688 0.441406 L 74.679688 68.027344 L 0.519531 68.027344 Z M 0.519531 0.441406 " clip-rule="nonzero"/></clipPath><clipPath id="190801eba0"><path d="M 17.789062 0.617188 L 57.429688 0.617188 C 62.003906 0.617188 66.390625 2.4375 69.625 5.671875 C 72.863281 8.90625 74.679688 13.292969 74.679688 17.867188 L 74.679688 50.777344 C 74.679688 55.351562 72.863281 59.738281 69.625 62.972656 C 66.390625 66.207031 62.003906 68.027344 57.429688 68.027344 L 17.789062 68.027344 C 13.210938 68.027344 8.824219 66.207031 5.589844 62.972656 C 2.355469 59.738281 0.539062 55.351562 0.539062 50.777344 L 0.539062 17.867188 C 0.539062 13.292969 2.355469 8.90625 5.589844 5.671875 C 8.824219 2.4375 13.210938 0.617188 17.789062 0.617188 Z M 17.789062 0.617188 " clip-rule="nonzero"/></clipPath><clipPath id="7637d9b919"><rect x="0" width="75" y="0" height="69"/></clipPath><clipPath id="2dac19cb7e"><path d="M 273.664062 115.355469 L 348.183594 115.355469 L 348.183594 183.027344 L 273.664062 183.027344 Z M 273.664062 115.355469 " clip-rule="nonzero"/></clipPath><clipPath id="ce4a404ef5"><path d="M 291.179688 115.617188 L 330.820312 115.617188 C 335.394531 115.617188 339.78125 117.4375 343.019531 120.671875 C 346.253906 123.90625 348.070312 128.292969 348.070312 132.867188 L 348.070312 165.777344 C 348.070312 170.351562 346.253906 174.738281 343.019531 177.972656 C 339.78125 181.207031 335.394531 183.027344 330.820312 183.027344 L 291.179688 183.027344 C 286.605469 183.027344 282.214844 181.207031 278.980469 177.972656 C 275.746094 174.738281 273.929688 170.351562 273.929688 165.777344 L 273.929688 132.867188 C 273.929688 128.292969 275.746094 123.90625 278.980469 120.671875 C 282.214844 117.4375 286.605469 115.617188 291.179688 115.617188 Z M 291.179688 115.617188 " clip-rule="nonzero"/></clipPath><clipPath id="520d0cf205"><path d="M 0.839844 0.441406 L 75.183594 0.441406 L 75.183594 68.027344 L 0.839844 68.027344 Z M 0.839844 0.441406 " clip-rule="nonzero"/></clipPath><clipPath id="fd5d8bf2d5"><path d="M 18.179688 0.617188 L 57.820312 0.617188 C 62.394531 0.617188 66.78125 2.4375 70.019531 5.671875 C 73.253906 8.90625 75.070312 13.292969 75.070312 17.867188 L 75.070312 50.777344 C 75.070312 55.351562 73.253906 59.738281 70.019531 62.972656 C 66.78125 66.207031 62.394531 68.027344 57.820312 68.027344 L 18.179688 68.027344 C 13.605469 68.027344 9.214844 66.207031 5.980469 62.972656 C 2.746094 59.738281 0.929688 55.351562 0.929688 50.777344 L 0.929688 17.867188 C 0.929688 13.292969 2.746094 8.90625 5.980469 5.671875 C 9.214844 2.4375 13.605469 0.617188 18.179688 0.617188 Z M 18.179688 0.617188 " clip-rule="nonzero"/></clipPath><clipPath id="ed1f4a20e1"><rect x="0" width="76" y="0" height="69"/></clipPath><clipPath id="5e2b0c6c58"><path d="M 27 192 L 101.359375 192 L 101.359375 259.433594 L 27 259.433594 Z M 27 192 " clip-rule="nonzero"/></clipPath><clipPath id="cc290c6515"><path d="M 44.355469 192.027344 L 83.996094 192.027344 C 88.570312 192.027344 92.960938 193.84375 96.195312 197.078125 C 99.429688 200.3125 101.246094 204.699219 101.246094 209.277344 L 101.246094 242.183594 C 101.246094 246.757812 99.429688 251.144531 96.195312 254.382812 C 92.960938 257.617188 88.570312 259.433594 83.996094 259.433594 L 44.355469 259.433594 C 39.78125 259.433594 35.390625 257.617188 32.15625 254.382812 C 28.921875 251.144531 27.105469 246.757812 27.105469 242.183594 L 27.105469 209.277344 C 27.105469 204.699219 28.921875 200.3125 32.15625 197.078125 C 35.390625 193.84375 39.78125 192.027344 44.355469 192.027344 Z M 44.355469 192.027344 " clip-rule="nonzero"/></clipPath><clipPath id="4648714b11"><path d="M 0 0 L 74.28125 0 L 74.28125 67.433594 L 0 67.433594 Z M 0 0 " clip-rule="nonzero"/></clipPath><clipPath id="1b5e65209c"><path d="M 17.355469 0.0273438 L 56.996094 0.0273438 C 61.570312 0.0273438 65.960938 1.84375 69.195312 5.078125 C 72.429688 8.3125 74.246094 12.699219 74.246094 17.277344 L 74.246094 50.183594 C 74.246094 54.757812 72.429688 59.144531 69.195312 62.382812 C 65.960938 65.617188 61.570312 67.433594 56.996094 67.433594 L 17.355469 67.433594 C 12.78125 67.433594 8.390625 65.617188 5.15625 62.382812 C 1.921875 59.144531 0.105469 54.757812 0.105469 50.183594 L 0.105469 17.277344 C 0.105469 12.699219 1.921875 8.3125 5.15625 5.078125 C 8.390625 1.84375 12.78125 0.0273438 17.355469 0.0273438 Z M 17.355469 0.0273438 " clip-rule="nonzero"/></clipPath><clipPath id="e05ec4d51b"><rect x="0" width="75" y="0" height="68"/></clipPath><clipPath id="5ccd7c947a"><path d="M 109.058594 192 L 183.574219 192 L 183.574219 259.433594 L 109.058594 259.433594 Z M 109.058594 192 " clip-rule="nonzero"/></clipPath><clipPath id="22859bc81e"><path d="M 126.570312 192.027344 L 166.210938 192.027344 C 170.789062 192.027344 175.175781 193.84375 178.410156 197.078125 C 181.644531 200.3125 183.460938 204.699219 183.460938 209.277344 L 183.460938 242.183594 C 183.460938 246.757812 181.644531 251.144531 178.410156 254.382812 C 175.175781 257.617188 170.789062 259.433594 166.210938 259.433594 L 126.570312 259.433594 C 121.996094 259.433594 117.609375 257.617188 114.375 254.382812 C 111.136719 251.144531 109.320312 246.757812 109.320312 242.183594 L 109.320312 209.277344 C 109.320312 204.699219 111.136719 200.3125 114.375 197.078125 C 117.609375 193.84375 121.996094 192.027344 126.570312 192.027344 Z M 126.570312 192.027344 " clip-rule="nonzero"/></clipPath><clipPath id="5ae28889a9"><path d="M 0.199219 0 L 74.574219 0 L 74.574219 67.433594 L 0.199219 67.433594 Z M 0.199219 0 " clip-rule="nonzero"/></clipPath><clipPath id="ec6a985250"><path d="M 17.570312 0.0273438 L 57.210938 0.0273438 C 61.789062 0.0273438 66.175781 1.84375 69.410156 5.078125 C 72.644531 8.3125 74.460938 12.699219 74.460938 17.277344 L 74.460938 50.183594 C 74.460938 54.757812 72.644531 59.144531 69.410156 62.382812 C 66.175781 65.617188 61.789062 67.433594 57.210938 67.433594 L 17.570312 67.433594 C 12.996094 67.433594 8.609375 65.617188 5.375 62.382812 C 2.136719 59.144531 0.320312 54.757812 0.320312 50.183594 L 0.320312 17.277344 C 0.320312 12.699219 2.136719 8.3125 5.375 5.078125 C 8.609375 1.84375 12.996094 0.0273438 17.570312 0.0273438 Z M 17.570312 0.0273438 " clip-rule="nonzero"/></clipPath><clipPath id="26cb42e56f"><rect x="0" width="75" y="0" height="68"/></clipPath><clipPath id="d260bf3da9"><path d="M 191.449219 192 L 265.964844 192 L 265.964844 259.433594 L 191.449219 259.433594 Z M 191.449219 192 " clip-rule="nonzero"/></clipPath><clipPath id="71479f21e5"><path d="M 208.960938 192.027344 L 248.605469 192.027344 C 253.179688 192.027344 257.566406 193.84375 260.800781 197.078125 C 264.035156 200.3125 265.855469 204.699219 265.855469 209.277344 L 265.855469 242.183594 C 265.855469 246.757812 264.035156 251.144531 260.800781 254.382812 C 257.566406 257.617188 253.179688 259.433594 248.605469 259.433594 L 208.960938 259.433594 C 204.386719 259.433594 200 257.617188 196.765625 254.382812 C 193.53125 251.144531 191.710938 246.757812 191.710938 242.183594 L 191.710938 209.277344 C 191.710938 204.699219 193.53125 200.3125 196.765625 197.078125 C 200 193.84375 204.386719 192.027344 208.960938 192.027344 Z M 208.960938 192.027344 " clip-rule="nonzero"/></clipPath><clipPath id="5a515fc25e"><path d="M 0.519531 0 L 74.921875 0 L 74.921875 67.433594 L 0.519531 67.433594 Z M 0.519531 0 " clip-rule="nonzero"/></clipPath><clipPath id="74fd3ac68f"><path d="M 17.960938 0.0273438 L 57.605469 0.0273438 C 62.179688 0.0273438 66.566406 1.84375 69.800781 5.078125 C 73.035156 8.3125 74.855469 12.699219 74.855469 17.277344 L 74.855469 50.183594 C 74.855469 54.757812 73.035156 59.144531 69.800781 62.382812 C 66.566406 65.617188 62.179688 67.433594 57.605469 67.433594 L 17.960938 67.433594 C 13.386719 67.433594 9 65.617188 5.765625 62.382812 C 2.53125 59.144531 0.710938 54.757812 0.710938 50.183594 L 0.710938 17.277344 C 0.710938 12.699219 2.53125 8.3125 5.765625 5.078125 C 9 1.84375 13.386719 0.0273438 17.960938 0.0273438 Z M 17.960938 0.0273438 " clip-rule="nonzero"/></clipPath><clipPath id="9e0dbc6cd1"><rect x="0" width="75" y="0" height="68"/></clipPath><clipPath id="0cf68766d7"><path d="M 273.664062 192 L 348.183594 192 L 348.183594 259.433594 L 273.664062 259.433594 Z M 273.664062 192 " clip-rule="nonzero"/></clipPath><clipPath id="eb171d3680"><path d="M 291.179688 192.027344 L 330.820312 192.027344 C 335.394531 192.027344 339.78125 193.84375 343.019531 197.078125 C 346.253906 200.3125 348.070312 204.699219 348.070312 209.277344 L 348.070312 242.183594 C 348.070312 246.757812 346.253906 251.144531 343.019531 254.382812 C 339.78125 257.617188 335.394531 259.433594 330.820312 259.433594 L 291.179688 259.433594 C 286.605469 259.433594 282.214844 257.617188 278.980469 254.382812 C 275.746094 251.144531 273.929688 246.757812 273.929688 242.183594 L 273.929688 209.277344 C 273.929688 204.699219 275.746094 200.3125 278.980469 197.078125 C 282.214844 193.84375 286.605469 192.027344 291.179688 192.027344 Z M 291.179688 192.027344 " clip-rule="nonzero"/></clipPath><clipPath id="d1d6826077"><path d="M 0.839844 0 L 75.183594 0 L 75.183594 67.433594 L 0.839844 67.433594 Z M 0.839844 0 " clip-rule="nonzero"/></clipPath><clipPath id="175a95ac5b"><path d="M 18.179688 0.0273438 L 57.820312 0.0273438 C 62.394531 0.0273438 66.78125 1.84375 70.019531 5.078125 C 73.253906 8.3125 75.070312 12.699219 75.070312 17.277344 L 75.070312 50.183594 C 75.070312 54.757812 73.253906 59.144531 70.019531 62.382812 C 66.78125 65.617188 62.394531 67.433594 57.820312 67.433594 L 18.179688 67.433594 C 13.605469 67.433594 9.214844 65.617188 5.980469 62.382812 C 2.746094 59.144531 0.929688 54.757812 0.929688 50.183594 L 0.929688 17.277344 C 0.929688 12.699219 2.746094 8.3125 5.980469 5.078125 C 9.214844 1.84375 13.605469 0.0273438 18.179688 0.0273438 Z M 18.179688 0.0273438 " clip-rule="nonzero"/></clipPath><clipPath id="f393210a84"><rect x="0" width="76" y="0" height="68"/></clipPath><clipPath id="60b2304907"><path d="M 26.667969 268.171875 L 101.183594 268.171875 L 101.183594 335.839844 L 26.667969 335.839844 Z M 26.667969 268.171875 " clip-rule="nonzero"/></clipPath><clipPath id="996c69d0d2"><path d="M 44.179688 268.433594 L 83.820312 268.433594 C 88.394531 268.433594 92.785156 270.25 96.019531 273.484375 C 99.253906 276.722656 101.070312 281.109375 101.070312 285.683594 L 101.070312 318.589844 C 101.070312 323.164062 99.253906 327.554688 96.019531 330.789062 C 92.785156 334.023438 88.394531 335.839844 83.820312 335.839844 L 44.179688 335.839844 C 39.605469 335.839844 35.21875 334.023438 31.980469 330.789062 C 28.746094 327.554688 26.929688 323.164062 26.929688 318.589844 L 26.929688 285.683594 C 26.929688 281.109375 28.746094 276.722656 31.980469 273.484375 C 35.21875 270.25 39.605469 268.433594 44.179688 268.433594 Z M 44.179688 268.433594 " clip-rule="nonzero"/></clipPath><clipPath id="8e1b4b7f49"><path d="M 0.878906 0.320312 L 75.183594 0.320312 L 75.183594 67.839844 L 0.878906 67.839844 Z M 0.878906 0.320312 " clip-rule="nonzero"/></clipPath><clipPath id="b35d97ef78"><path d="M 18.179688 0.433594 L 57.820312 0.433594 C 62.394531 0.433594 66.785156 2.25 70.019531 5.484375 C 73.253906 8.722656 75.070312 13.109375 75.070312 17.683594 L 75.070312 50.589844 C 75.070312 55.164062 73.253906 59.554688 70.019531 62.789062 C 66.785156 66.023438 62.394531 67.839844 57.820312 67.839844 L 18.179688 67.839844 C 13.605469 67.839844 9.21875 66.023438 5.980469 62.789062 C 2.746094 59.554688 0.929688 55.164062 0.929688 50.589844 L 0.929688 17.683594 C 0.929688 13.109375 2.746094 8.722656 5.980469 5.484375 C 9.21875 2.25 13.605469 0.433594 18.179688 0.433594 Z M 18.179688 0.433594 " clip-rule="nonzero"/></clipPath><clipPath id="3b3e89f43e"><rect x="0" width="76" y="0" height="68"/></clipPath><clipPath id="fc72f07ea8"><path d="M 109.058594 268.171875 L 183.574219 268.171875 L 183.574219 335.839844 L 109.058594 335.839844 Z M 109.058594 268.171875 " clip-rule="nonzero"/></clipPath><clipPath id="29d36c0564"><path d="M 126.570312 268.433594 L 166.210938 268.433594 C 170.789062 268.433594 175.175781 270.25 178.410156 273.484375 C 181.644531 276.722656 183.460938 281.109375 183.460938 285.683594 L 183.460938 318.589844 C 183.460938 323.164062 181.644531 327.554688 178.410156 330.789062 C 175.175781 334.023438 170.789062 335.839844 166.210938 335.839844 L 126.570312 335.839844 C 121.996094 335.839844 117.609375 334.023438 114.375 330.789062 C 111.136719 327.554688 109.320312 323.164062 109.320312 318.589844 L 109.320312 285.683594 C 109.320312 281.109375 111.136719 276.722656 114.375 273.484375 C 117.609375 270.25 121.996094 268.433594 126.570312 268.433594 Z M 126.570312 268.433594 " clip-rule="nonzero"/></clipPath><clipPath id="50d7550f62"><path d="M 0.199219 0.320312 L 74.574219 0.320312 L 74.574219 67.839844 L 0.199219 67.839844 Z M 0.199219 0.320312 " clip-rule="nonzero"/></clipPath><clipPath id="423a9a387b"><path d="M 17.570312 0.433594 L 57.210938 0.433594 C 61.789062 0.433594 66.175781 2.25 69.410156 5.484375 C 72.644531 8.722656 74.460938 13.109375 74.460938 17.683594 L 74.460938 50.589844 C 74.460938 55.164062 72.644531 59.554688 69.410156 62.789062 C 66.175781 66.023438 61.789062 67.839844 57.210938 67.839844 L 17.570312 67.839844 C 12.996094 67.839844 8.609375 66.023438 5.375 62.789062 C 2.136719 59.554688 0.320312 55.164062 0.320312 50.589844 L 0.320312 17.683594 C 0.320312 13.109375 2.136719 8.722656 5.375 5.484375 C 8.609375 2.25 12.996094 0.433594 17.570312 0.433594 Z M 17.570312 0.433594 " clip-rule="nonzero"/></clipPath><clipPath id="73c9c05f08"><rect x="0" width="75" y="0" height="68"/></clipPath><clipPath id="c800cbd20d"><path d="M 191.476562 268.171875 L 265.992188 268.171875 L 265.992188 335.839844 L 191.476562 335.839844 Z M 191.476562 268.171875 " clip-rule="nonzero"/></clipPath><clipPath id="0bc75e4fc6"><path d="M 208.992188 268.433594 L 248.632812 268.433594 C 253.207031 268.433594 257.59375 270.25 260.828125 273.484375 C 264.066406 276.722656 265.882812 281.109375 265.882812 285.683594 L 265.882812 318.589844 C 265.882812 323.164062 264.066406 327.554688 260.828125 330.789062 C 257.59375 334.023438 253.207031 335.839844 248.632812 335.839844 L 208.992188 335.839844 C 204.414062 335.839844 200.027344 334.023438 196.792969 330.789062 C 193.558594 327.554688 191.742188 323.164062 191.742188 318.589844 L 191.742188 285.683594 C 191.742188 281.109375 193.558594 276.722656 196.792969 273.484375 C 200.027344 270.25 204.414062 268.433594 208.992188 268.433594 Z M 208.992188 268.433594 " clip-rule="nonzero"/></clipPath><clipPath id="5e47e0f103"><path d="M 0.519531 0.320312 L 74.921875 0.320312 L 74.921875 67.839844 L 0.519531 67.839844 Z M 0.519531 0.320312 " clip-rule="nonzero"/></clipPath><clipPath id="e06bd3a357"><path d="M 17.992188 0.433594 L 57.632812 0.433594 C 62.207031 0.433594 66.59375 2.25 69.828125 5.484375 C 73.066406 8.722656 74.882812 13.109375 74.882812 17.683594 L 74.882812 50.589844 C 74.882812 55.164062 73.066406 59.554688 69.828125 62.789062 C 66.59375 66.023438 62.207031 67.839844 57.632812 67.839844 L 17.992188 67.839844 C 13.414062 67.839844 9.027344 66.023438 5.792969 62.789062 C 2.558594 59.554688 0.742188 55.164062 0.742188 50.589844 L 0.742188 17.683594 C 0.742188 13.109375 2.558594 8.722656 5.792969 5.484375 C 9.027344 2.25 13.414062 0.433594 17.992188 0.433594 Z M 17.992188 0.433594 " clip-rule="nonzero"/></clipPath><clipPath id="2f719fec53"><rect x="0" width="75" y="0" height="68"/></clipPath><clipPath id="7de69fac98"><path d="M 273.664062 268.171875 L 348.183594 268.171875 L 348.183594 335.839844 L 273.664062 335.839844 Z M 273.664062 268.171875 " clip-rule="nonzero"/></clipPath><clipPath id="c5c6094532"><path d="M 291.179688 268.433594 L 330.820312 268.433594 C 335.394531 268.433594 339.78125 270.25 343.019531 273.484375 C 346.253906 276.722656 348.070312 281.109375 348.070312 285.683594 L 348.070312 318.589844 C 348.070312 323.164062 346.253906 327.554688 343.019531 330.789062 C 339.78125 334.023438 335.394531 335.839844 330.820312 335.839844 L 291.179688 335.839844 C 286.605469 335.839844 282.214844 334.023438 278.980469 330.789062 C 275.746094 327.554688 273.929688 323.164062 273.929688 318.589844 L 273.929688 285.683594 C 273.929688 281.109375 275.746094 276.722656 278.980469 273.484375 C 282.214844 270.25 286.605469 268.433594 291.179688 268.433594 Z M 291.179688 268.433594 " clip-rule="nonzero"/></clipPath><clipPath id="5e87e3cb02"><path d="M 0.839844 0.320312 L 75.183594 0.320312 L 75.183594 67.839844 L 0.839844 67.839844 Z M 0.839844 0.320312 " clip-rule="nonzero"/></clipPath><clipPath id="1b6b30222c"><path d="M 18.179688 0.433594 L 57.820312 0.433594 C 62.394531 0.433594 66.78125 2.25 70.019531 5.484375 C 73.253906 8.722656 75.070312 13.109375 75.070312 17.683594 L 75.070312 50.589844 C 75.070312 55.164062 73.253906 59.554688 70.019531 62.789062 C 66.78125 66.023438 62.394531 67.839844 57.820312 67.839844 L 18.179688 67.839844 C 13.605469 67.839844 9.214844 66.023438 5.980469 62.789062 C 2.746094 59.554688 0.929688 55.164062 0.929688 50.589844 L 0.929688 17.683594 C 0.929688 13.109375 2.746094 8.722656 5.980469 5.484375 C 9.214844 2.25 13.605469 0.433594 18.179688 0.433594 Z M 18.179688 0.433594 " clip-rule="nonzero"/></clipPath><clipPath id="4d3fb22888"><rect x="0" width="76" y="0" height="68"/></clipPath></defs><g clip-path="url(#662491ae12)"><g clip-path="url(#c2319ce90d)"><g transform="matrix(1, 0, 0, 1, 27, 39)"><g clip-path="url(#2766c3a639)"><g clip-path="url(#cfc8688fdd)"><g clip-path="url(#481613cee7)"><path fill="#000000" d="M 0.105469 0.160156 L 74.359375 0.160156 L 74.359375 67.566406 L 0.105469 67.566406 Z M 0.105469 0.160156 " fill-opacity="1" fill-rule="nonzero"/></g></g></g></g></g></g><g clip-path="url(#c1cddf2633)"><g clip-path="url(#bfca4cd13f)"><g transform="matrix(1, 0, 0, 1, 109, 39)"><g clip-path="url(#68f43948d1)"><g clip-path="url(#8a8ad9016e)"><g clip-path="url(#8f8d9e6fde)"><path fill="#000000" d="M 0.320312 0.160156 L 74.574219 0.160156 L 74.574219 67.566406 L 0.320312 67.566406 Z M 0.320312 0.160156 " fill-opacity="1" fill-rule="nonzero"/></g></g></g></g></g></g><g clip-path="url(#d453169710)"><g clip-path="url(#e10924ae5b)"><g transform="matrix(1, 0, 0, 1, 191, 39)"><g clip-path="url(#314b2c0b47)"><g clip-path="url(#6423375641)"><g clip-path="url(#151c3cca8b)"><path fill="#000000" d="M 0.539062 0.160156 L 74.789062 0.160156 L 74.789062 67.566406 L 0.539062 67.566406 Z M 0.539062 0.160156 " fill-opacity="1" fill-rule="nonzero"/></g></g></g></g></g></g><g clip-path="url(#3bbe50f973)"><g clip-path="url(#db1ddc5c33)"><g transform="matrix(1, 0, 0, 1, 273, 39)"><g clip-path="url(#bfc9955e66)"><g clip-path="url(#2ce73dd5bf)"><g clip-path="url(#4abaf02ae2)"><path fill="#000000" d="M 0.929688 0.160156 L 75.183594 0.160156 L 75.183594 67.566406 L 0.929688 67.566406 Z M 0.929688 0.160156 " fill-opacity="1" fill-rule="nonzero"/></g></g></g></g></g></g><g clip-path="url(#42f8153587)"><g clip-path="url(#8e062b3a58)"><g transform="matrix(1, 0, 0, 1, 27, 115)"><g clip-path="url(#2127c70feb)"><g clip-path="url(#5263656dd7)"><g clip-path="url(#0397668515)"><path fill="#000000" d="M 0.105469 0.617188 L 74.359375 0.617188 L 74.359375 68.027344 L 0.105469 68.027344 Z M 0.105469 0.617188 " fill-opacity="1" fill-rule="nonzero"/></g></g></g></g></g></g><g clip-path="url(#aa8a20e4a8)"><g clip-path="url(#f9dee616ab)"><g transform="matrix(1, 0, 0, 1, 109, 115)"><g clip-path="url(#664a1096c7)"><g clip-path="url(#abf28eb938)"><g clip-path="url(#30e4a57477)"><path fill="#000000" d="M 0.320312 0.617188 L 74.574219 0.617188 L 74.574219 68.027344 L 0.320312 68.027344 Z M 0.320312 0.617188 " fill-opacity="1" fill-rule="nonzero"/></g></g></g></g></g></g><g clip-path="url(#033bf1f582)"><g clip-path="url(#553172c6ff)"><g transform="matrix(1, 0, 0, 1, 191, 115)"><g clip-path="url(#7637d9b919)"><g clip-path="url(#c42ba7cd73)"><g clip-path="url(#190801eba0)"><path fill="#000000" d="M 0.539062 0.617188 L 74.789062 0.617188 L 74.789062 68.027344 L 0.539062 68.027344 Z M 0.539062 0.617188 " fill-opacity="1" fill-rule="nonzero"/></g></g></g></g></g></g><g clip-path="url(#2dac19cb7e)"><g clip-path="url(#ce4a404ef5)"><g transform="matrix(1, 0, 0, 1, 273, 115)"><g clip-path="url(#ed1f4a20e1)"><g clip-path="url(#520d0cf205)"><g clip-path="url(#fd5d8bf2d5)"><path fill="#000000" d="M 0.929688 0.617188 L 75.183594 0.617188 L 75.183594 68.027344 L 0.929688 68.027344 Z M 0.929688 0.617188 " fill-opacity="1" fill-rule="nonzero"/></g></g></g></g></g></g><g clip-path="url(#5e2b0c6c58)"><g clip-path="url(#cc290c6515)"><g transform="matrix(1, 0, 0, 1, 27, 192)"><g clip-path="url(#e05ec4d51b)"><g clip-path="url(#4648714b11)"><g clip-path="url(#1b5e65209c)"><path fill="#000000" d="M 0.105469 0.0273438 L 74.359375 0.0273438 L 74.359375 67.433594 L 0.105469 67.433594 Z M 0.105469 0.0273438 " fill-opacity="1" fill-rule="nonzero"/></g></g></g></g></g></g><g clip-path="url(#5ccd7c947a)"><g clip-path="url(#22859bc81e)"><g transform="matrix(1, 0, 0, 1, 109, 192)"><g clip-path="url(#26cb42e56f)"><g clip-path="url(#5ae28889a9)"><g clip-path="url(#ec6a985250)"><path fill="#000000" d="M 0.320312 0.0273438 L 74.574219 0.0273438 L 74.574219 67.433594 L 0.320312 67.433594 Z M 0.320312 0.0273438 " fill-opacity="1" fill-rule="nonzero"/></g></g></g></g></g></g><g clip-path="url(#d260bf3da9)"><g clip-path="url(#71479f21e5)"><g transform="matrix(1, 0, 0, 1, 191, 192)"><g clip-path="url(#9e0dbc6cd1)"><g clip-path="url(#5a515fc25e)"><g clip-path="url(#74fd3ac68f)"><path fill="#000000" d="M 0.710938 0.0273438 L 74.964844 0.0273438 L 74.964844 67.433594 L 0.710938 67.433594 Z M 0.710938 0.0273438 " fill-opacity="1" fill-rule="nonzero"/></g></g></g></g></g></g><g clip-path="url(#0cf68766d7)"><g clip-path="url(#eb171d3680)"><g transform="matrix(1, 0, 0, 1, 273, 192)"><g clip-path="url(#f393210a84)"><g clip-path="url(#d1d6826077)"><g clip-path="url(#175a95ac5b)"><path fill="#000000" d="M 0.929688 0.0273438 L 75.183594 0.0273438 L 75.183594 67.433594 L 0.929688 67.433594 Z M 0.929688 0.0273438 " fill-opacity="1" fill-rule="nonzero"/></g></g></g></g></g></g><g clip-path="url(#60b2304907)"><g clip-path="url(#996c69d0d2)"><g transform="matrix(1, 0, 0, 1, 26, 268)"><g clip-path="url(#3b3e89f43e)"><g clip-path="url(#8e1b4b7f49)"><g clip-path="url(#b35d97ef78)"><path fill="#000000" d="M 0.929688 0.433594 L 75.183594 0.433594 L 75.183594 67.839844 L 0.929688 67.839844 Z M 0.929688 0.433594 " fill-opacity="1" fill-rule="nonzero"/></g></g></g></g></g></g><g clip-path="url(#fc72f07ea8)"><g clip-path="url(#29d36c0564)"><g transform="matrix(1, 0, 0, 1, 109, 268)"><g clip-path="url(#73c9c05f08)"><g clip-path="url(#50d7550f62)"><g clip-path="url(#423a9a387b)"><path fill="#000000" d="M 0.320312 0.433594 L 74.574219 0.433594 L 74.574219 67.839844 L 0.320312 67.839844 Z M 0.320312 0.433594 " fill-opacity="1" fill-rule="nonzero"/></g></g></g></g></g></g><g clip-path="url(#c800cbd20d)"><g clip-path="url(#0bc75e4fc6)"><g transform="matrix(1, 0, 0, 1, 191, 268)"><g clip-path="url(#2f719fec53)"><g clip-path="url(#5e47e0f103)"><g clip-path="url(#e06bd3a357)"><path fill="#000000" d="M 0.742188 0.433594 L 74.992188 0.433594 L 74.992188 67.839844 L 0.742188 67.839844 Z M 0.742188 0.433594 " fill-opacity="1" fill-rule="nonzero"/></g></g></g></g></g></g><g clip-path="url(#7de69fac98)"><g clip-path="url(#c5c6094532)"><g transform="matrix(1, 0, 0, 1, 273, 268)"><g clip-path="url(#4d3fb22888)"><g clip-path="url(#5e87e3cb02)"><g clip-path="url(#1b6b30222c)"><path fill="#000000" d="M 0.929688 0.433594 L 75.183594 0.433594 L 75.183594 67.839844 L 0.929688 67.839844 Z M 0.929688 0.433594 " fill-opacity="1" fill-rule="nonzero"/></g></g></g></g></g></g></svg>