<svg xmlns="http://www.w3.org/2000/svg" xmlns:xlink="http://www.w3.org/1999/xlink" width="500" zoomAndPan="magnify" viewBox="0 0 375 374.999991" height="500" preserveAspectRatio="xMidYMid meet" version="1.0"><defs><clipPath id="a970fd5c72"><path d="M 5.992188 106.007812 L 75.808594 106.007812 L 75.808594 269 L 5.992188 269 Z M 5.992188 106.007812 " clip-rule="nonzero"/></clipPath><clipPath id="ddf9e1cae1"><path d="M 40.898438 106.007812 C 50.160156 106.007812 59.039062 109.6875 65.585938 116.234375 C 72.132812 122.78125 75.808594 131.660156 75.808594 140.917969 L 75.808594 234.082031 C 75.808594 243.339844 72.132812 252.21875 65.585938 258.765625 C 59.039062 265.3125 50.160156 268.992188 40.898438 268.992188 C 31.640625 268.992188 22.761719 265.3125 16.214844 258.765625 C 9.667969 252.21875 5.992188 243.339844 5.992188 234.082031 L 5.992188 140.917969 C 5.992188 131.660156 9.667969 122.78125 16.214844 116.234375 C 22.761719 109.6875 31.640625 106.007812 40.898438 106.007812 Z M 40.898438 106.007812 " clip-rule="nonzero"/></clipPath><clipPath id="47c91151c9"><path d="M 0.992188 0.0078125 L 70.808594 0.0078125 L 70.808594 163 L 0.992188 163 Z M 0.992188 0.0078125 " clip-rule="nonzero"/></clipPath><clipPath id="f4b8c638a5"><path d="M 35.898438 0.0078125 C 45.160156 0.0078125 54.039062 3.6875 60.585938 10.234375 C 67.132812 16.78125 70.808594 25.660156 70.808594 34.917969 L 70.808594 128.082031 C 70.808594 137.339844 67.132812 146.21875 60.585938 152.765625 C 54.039062 159.3125 45.160156 162.992188 35.898438 162.992188 C 26.640625 162.992188 17.761719 159.3125 11.214844 152.765625 C 4.667969 146.21875 0.992188 137.339844 0.992188 128.082031 L 0.992188 34.917969 C 0.992188 25.660156 4.667969 16.78125 11.214844 10.234375 C 17.761719 3.6875 26.640625 0.0078125 35.898438 0.0078125 Z M 35.898438 0.0078125 " clip-rule="nonzero"/></clipPath><clipPath id="0542d8485b"><rect x="0" width="71" y="0" height="163"/></clipPath><clipPath id="3a53115357"><path d="M 79.136719 73.941406 L 148.957031 73.941406 L 148.957031 301.125 L 79.136719 301.125 Z M 79.136719 73.941406 " clip-rule="nonzero"/></clipPath><clipPath id="c327a083e0"><path d="M 114.046875 73.941406 C 123.304688 73.941406 132.1875 77.617188 138.734375 84.164062 C 145.28125 90.710938 148.957031 99.589844 148.957031 108.847656 L 148.957031 266.152344 C 148.957031 275.410156 145.28125 284.289062 138.734375 290.835938 C 132.1875 297.382812 123.304688 301.058594 114.046875 301.058594 C 104.789062 301.058594 95.910156 297.382812 89.363281 290.835938 C 82.816406 284.289062 79.136719 275.410156 79.136719 266.152344 L 79.136719 108.847656 C 79.136719 99.589844 82.816406 90.710938 89.363281 84.164062 C 95.910156 77.617188 104.789062 73.941406 114.046875 73.941406 Z M 114.046875 73.941406 " clip-rule="nonzero"/></clipPath><clipPath id="526c07acf4"><path d="M 0.136719 0.941406 L 69.957031 0.941406 L 69.957031 228.125 L 0.136719 228.125 Z M 0.136719 0.941406 " clip-rule="nonzero"/></clipPath><clipPath id="4a4292999e"><path d="M 35.046875 0.941406 C 44.304688 0.941406 53.1875 4.617188 59.734375 11.164062 C 66.28125 17.710938 69.957031 26.589844 69.957031 35.847656 L 69.957031 193.152344 C 69.957031 202.410156 66.28125 211.289062 59.734375 217.835938 C 53.1875 224.382812 44.304688 228.058594 35.046875 228.058594 C 25.789062 228.058594 16.910156 224.382812 10.363281 217.835938 C 3.816406 211.289062 0.136719 202.410156 0.136719 193.152344 L 0.136719 35.847656 C 0.136719 26.589844 3.816406 17.710938 10.363281 11.164062 C 16.910156 4.617188 25.789062 0.941406 35.046875 0.941406 Z M 35.046875 0.941406 " clip-rule="nonzero"/></clipPath><clipPath id="7f0830f670"><rect x="0" width="70" y="0" height="229"/></clipPath><clipPath id="78253cfab1"><path d="M 152.488281 41.195312 L 222.308594 41.195312 L 222.308594 333.835938 L 152.488281 333.835938 Z M 152.488281 41.195312 " clip-rule="nonzero"/></clipPath><clipPath id="37aff68c35"><path d="M 187.398438 41.195312 C 196.65625 41.195312 205.535156 44.871094 212.082031 51.417969 C 218.628906 57.964844 222.308594 66.84375 222.308594 76.105469 L 222.308594 298.894531 C 222.308594 308.15625 218.628906 317.035156 212.082031 323.582031 C 205.535156 330.128906 196.65625 333.804688 187.398438 333.804688 C 178.140625 333.804688 169.261719 330.128906 162.714844 323.582031 C 156.167969 317.035156 152.488281 308.15625 152.488281 298.894531 L 152.488281 76.105469 C 152.488281 66.84375 156.167969 57.964844 162.714844 51.417969 C 169.261719 44.871094 178.140625 41.195312 187.398438 41.195312 Z M 187.398438 41.195312 " clip-rule="nonzero"/></clipPath><clipPath id="3b3ed2d7ed"><path d="M 0.488281 0.195312 L 70.308594 0.195312 L 70.308594 292.835938 L 0.488281 292.835938 Z M 0.488281 0.195312 " clip-rule="nonzero"/></clipPath><clipPath id="f4d722f09e"><path d="M 35.398438 0.195312 C 44.65625 0.195312 53.535156 3.871094 60.082031 10.417969 C 66.628906 16.964844 70.308594 25.84375 70.308594 35.105469 L 70.308594 257.894531 C 70.308594 267.15625 66.628906 276.035156 60.082031 282.582031 C 53.535156 289.128906 44.65625 292.804688 35.398438 292.804688 C 26.140625 292.804688 17.261719 289.128906 10.714844 282.582031 C 4.167969 276.035156 0.488281 267.15625 0.488281 257.894531 L 0.488281 35.105469 C 0.488281 25.84375 4.167969 16.964844 10.714844 10.417969 C 17.261719 3.871094 26.140625 0.195312 35.398438 0.195312 Z M 35.398438 0.195312 " clip-rule="nonzero"/></clipPath><clipPath id="0e6d2a91e0"><rect x="0" width="71" y="0" height="293"/></clipPath><clipPath id="38421e8e12"><path d="M 225.839844 73.941406 L 295.660156 73.941406 L 295.660156 301.125 L 225.839844 301.125 Z M 225.839844 73.941406 " clip-rule="nonzero"/></clipPath><clipPath id="c45c261909"><path d="M 260.75 73.941406 C 270.007812 73.941406 278.886719 77.617188 285.433594 84.164062 C 291.980469 90.710938 295.660156 99.589844 295.660156 108.847656 L 295.660156 266.152344 C 295.660156 275.410156 291.980469 284.289062 285.433594 290.835938 C 278.886719 297.382812 270.007812 301.058594 260.75 301.058594 C 251.492188 301.058594 242.609375 297.382812 236.0625 290.835938 C 229.515625 284.289062 225.839844 275.410156 225.839844 266.152344 L 225.839844 108.847656 C 225.839844 99.589844 229.515625 90.710938 236.0625 84.164062 C 242.609375 77.617188 251.492188 73.941406 260.75 73.941406 Z M 260.75 73.941406 " clip-rule="nonzero"/></clipPath><clipPath id="2f9f0d5ecf"><path d="M 0.839844 0.941406 L 70.660156 0.941406 L 70.660156 228.125 L 0.839844 228.125 Z M 0.839844 0.941406 " clip-rule="nonzero"/></clipPath><clipPath id="5b380284f1"><path d="M 35.75 0.941406 C 45.007812 0.941406 53.886719 4.617188 60.433594 11.164062 C 66.980469 17.710938 70.660156 26.589844 70.660156 35.847656 L 70.660156 193.152344 C 70.660156 202.410156 66.980469 211.289062 60.433594 217.835938 C 53.886719 224.382812 45.007812 228.058594 35.75 228.058594 C 26.492188 228.058594 17.609375 224.382812 11.0625 217.835938 C 4.515625 211.289062 0.839844 202.410156 0.839844 193.152344 L 0.839844 35.847656 C 0.839844 26.589844 4.515625 17.710938 11.0625 11.164062 C 17.609375 4.617188 26.492188 0.941406 35.75 0.941406 Z M 35.75 0.941406 " clip-rule="nonzero"/></clipPath><clipPath id="3098a6690f"><rect x="0" width="71" y="0" height="229"/></clipPath><clipPath id="db652de34f"><path d="M 299.191406 106.007812 L 369.007812 106.007812 L 369.007812 269 L 299.191406 269 Z M 299.191406 106.007812 " clip-rule="nonzero"/></clipPath><clipPath id="6563e53f67"><path d="M 334.101562 106.007812 C 343.359375 106.007812 352.238281 109.6875 358.785156 116.234375 C 365.332031 122.78125 369.007812 131.660156 369.007812 140.917969 L 369.007812 234.082031 C 369.007812 243.339844 365.332031 252.21875 358.785156 258.765625 C 352.238281 265.3125 343.359375 268.992188 334.101562 268.992188 C 324.839844 268.992188 315.960938 265.3125 309.414062 258.765625 C 302.867188 252.21875 299.191406 243.339844 299.191406 234.082031 L 299.191406 140.917969 C 299.191406 131.660156 302.867188 122.78125 309.414062 116.234375 C 315.960938 109.6875 324.839844 106.007812 334.101562 106.007812 Z M 334.101562 106.007812 " clip-rule="nonzero"/></clipPath><clipPath id="947ad81036"><path d="M 0.191406 0.0078125 L 70.007812 0.0078125 L 70.007812 163 L 0.191406 163 Z M 0.191406 0.0078125 " clip-rule="nonzero"/></clipPath><clipPath id="77b7a80ecb"><path d="M 35.101562 0.0078125 C 44.359375 0.0078125 53.238281 3.6875 59.785156 10.234375 C 66.332031 16.78125 70.007812 25.660156 70.007812 34.917969 L 70.007812 128.082031 C 70.007812 137.339844 66.332031 146.21875 59.785156 152.765625 C 53.238281 159.3125 44.359375 162.992188 35.101562 162.992188 C 25.839844 162.992188 16.960938 159.3125 10.414062 152.765625 C 3.867188 146.21875 0.191406 137.339844 0.191406 128.082031 L 0.191406 34.917969 C 0.191406 25.660156 3.867188 16.78125 10.414062 10.234375 C 16.960938 3.6875 25.839844 0.0078125 35.101562 0.0078125 Z M 35.101562 0.0078125 " clip-rule="nonzero"/></clipPath><clipPath id="deda58ad3d"><rect x="0" width="71" y="0" height="163"/></clipPath></defs><g clip-path="url(#a970fd5c72)"><g clip-path="url(#ddf9e1cae1)"><g transform="matrix(1, 0, 0, 1, 5, 106)"><g clip-path="url(#0542d8485b)"><g clip-path="url(#47c91151c9)"><g clip-path="url(#f4b8c638a5)"><path fill="#000000" d="M 0.992188 0.0078125 L 70.808594 0.0078125 L 70.808594 163.101562 L 0.992188 163.101562 Z M 0.992188 0.0078125 " fill-opacity="1" fill-rule="nonzero"/></g></g></g></g></g></g><g clip-path="url(#3a53115357)"><g clip-path="url(#c327a083e0)"><g transform="matrix(1, 0, 0, 1, 79, 73)"><g clip-path="url(#7f0830f670)"><g clip-path="url(#526c07acf4)"><g clip-path="url(#4a4292999e)"><path fill="#000000" d="M 0.136719 0.941406 L 69.957031 0.941406 L 69.957031 228.125 L 0.136719 228.125 Z M 0.136719 0.941406 " fill-opacity="1" fill-rule="nonzero"/></g></g></g></g></g></g><g clip-path="url(#78253cfab1)"><g clip-path="url(#37aff68c35)"><g transform="matrix(1, 0, 0, 1, 152, 41)"><g clip-path="url(#0e6d2a91e0)"><g clip-path="url(#3b3ed2d7ed)"><g clip-path="url(#f4d722f09e)"><path fill="#000000" d="M 0.488281 0.195312 L 70.308594 0.195312 L 70.308594 292.835938 L 0.488281 292.835938 Z M 0.488281 0.195312 " fill-opacity="1" fill-rule="nonzero"/></g></g></g></g></g></g><g clip-path="url(#38421e8e12)"><g clip-path="url(#c45c261909)"><g transform="matrix(1, 0, 0, 1, 225, 73)"><g clip-path="url(#3098a6690f)"><g clip-path="url(#2f9f0d5ecf)"><g clip-path="url(#5b380284f1)"><path fill="#000000" d="M 0.839844 0.941406 L 70.660156 0.941406 L 70.660156 228.125 L 0.839844 228.125 Z M 0.839844 0.941406 " fill-opacity="1" fill-rule="nonzero"/></g></g></g></g></g></g><g clip-path="url(#db652de34f)"><g clip-path="url(#6563e53f67)"><g transform="matrix(1, 0, 0, 1, 299, 106)"><g clip-path="url(#deda58ad3d)"><g clip-path="url(#947ad81036)"><g clip-path="url(#77b7a80ecb)"><path fill="#000000" d="M 0.191406 0.0078125 L 70.007812 0.0078125 L 70.007812 163.101562 L 0.191406 163.101562 Z M 0.191406 0.0078125 " fill-opacity="1" fill-rule="nonzero"/></g></g></g></g></g></g></svg>