<svg xmlns="http://www.w3.org/2000/svg" xmlns:xlink="http://www.w3.org/1999/xlink" width="500" zoomAndPan="magnify" viewBox="0 0 375 374.999991" height="500" preserveAspectRatio="xMidYMid meet" version="1.0"><defs><clipPath id="a28901e242"><path d="M 15.304688 8.816406 L 127.804688 8.816406 L 127.804688 121.316406 L 15.304688 121.316406 Z M 15.304688 8.816406 " clip-rule="nonzero"/></clipPath><clipPath id="947a93532d"><path d="M 71.554688 8.816406 C 40.488281 8.816406 15.304688 34 15.304688 65.066406 C 15.304688 96.132812 40.488281 121.316406 71.554688 121.316406 C 102.621094 121.316406 127.804688 96.132812 127.804688 65.066406 C 127.804688 34 102.621094 8.816406 71.554688 8.816406 Z M 71.554688 8.816406 " clip-rule="nonzero"/></clipPath><clipPath id="ae121bebed"><path d="M 0.304688 0.816406 L 112.804688 0.816406 L 112.804688 113.316406 L 0.304688 113.316406 Z M 0.304688 0.816406 " clip-rule="nonzero"/></clipPath><clipPath id="fdbf127acf"><path d="M 56.554688 0.816406 C 25.488281 0.816406 0.304688 26 0.304688 57.066406 C 0.304688 88.132812 25.488281 113.316406 56.554688 113.316406 C 87.621094 113.316406 112.804688 88.132812 112.804688 57.066406 C 112.804688 26 87.621094 0.816406 56.554688 0.816406 Z M 56.554688 0.816406 " clip-rule="nonzero"/></clipPath><clipPath id="c71ef7da71"><rect x="0" width="113" y="0" height="114"/></clipPath><clipPath id="72171e973c"><path d="M 158.988281 41.085938 L 271.488281 41.085938 L 271.488281 153.585938 L 158.988281 153.585938 Z M 158.988281 41.085938 " clip-rule="nonzero"/></clipPath><clipPath id="e443105f2e"><path d="M 215.238281 41.085938 C 184.171875 41.085938 158.988281 66.273438 158.988281 97.335938 C 158.988281 128.402344 184.171875 153.585938 215.238281 153.585938 C 246.304688 153.585938 271.488281 128.402344 271.488281 97.335938 C 271.488281 66.273438 246.304688 41.085938 215.238281 41.085938 Z M 215.238281 41.085938 " clip-rule="nonzero"/></clipPath><clipPath id="af6f021071"><path d="M 0.988281 0.0859375 L 113.488281 0.0859375 L 113.488281 112.585938 L 0.988281 112.585938 Z M 0.988281 0.0859375 " clip-rule="nonzero"/></clipPath><clipPath id="608c435fa8"><path d="M 57.238281 0.0859375 C 26.171875 0.0859375 0.988281 25.273438 0.988281 56.335938 C 0.988281 87.402344 26.171875 112.585938 57.238281 112.585938 C 88.304688 112.585938 113.488281 87.402344 113.488281 56.335938 C 113.488281 25.273438 88.304688 0.0859375 57.238281 0.0859375 Z M 57.238281 0.0859375 " clip-rule="nonzero"/></clipPath><clipPath id="ef39f93e7a"><rect x="0" width="114" y="0" height="113"/></clipPath><clipPath id="acf915ed28"><path d="M 245.007812 184.625 L 357.507812 184.625 L 357.507812 297.125 L 245.007812 297.125 Z M 245.007812 184.625 " clip-rule="nonzero"/></clipPath><clipPath id="3132117423"><path d="M 301.257812 184.625 C 270.191406 184.625 245.007812 209.8125 245.007812 240.875 C 245.007812 271.941406 270.191406 297.125 301.257812 297.125 C 332.324219 297.125 357.507812 271.941406 357.507812 240.875 C 357.507812 209.8125 332.324219 184.625 301.257812 184.625 Z M 301.257812 184.625 " clip-rule="nonzero"/></clipPath><clipPath id="fcc1ba35bf"><path d="M 0.0078125 0.625 L 112.507812 0.625 L 112.507812 113.125 L 0.0078125 113.125 Z M 0.0078125 0.625 " clip-rule="nonzero"/></clipPath><clipPath id="3d3858c59f"><path d="M 56.257812 0.625 C 25.191406 0.625 0.0078125 25.8125 0.0078125 56.875 C 0.0078125 87.941406 25.191406 113.125 56.257812 113.125 C 87.324219 113.125 112.507812 87.941406 112.507812 56.875 C 112.507812 25.8125 87.324219 0.625 56.257812 0.625 Z M 56.257812 0.625 " clip-rule="nonzero"/></clipPath><clipPath id="201fd6dd61"><rect x="0" width="113" y="0" height="114"/></clipPath><clipPath id="bb57012273"><path d="M 50.988281 229.035156 L 163.488281 229.035156 L 163.488281 341.535156 L 50.988281 341.535156 Z M 50.988281 229.035156 " clip-rule="nonzero"/></clipPath><clipPath id="e57d32ebfb"><path d="M 107.238281 229.035156 C 76.171875 229.035156 50.988281 254.21875 50.988281 285.285156 C 50.988281 316.351562 76.171875 341.535156 107.238281 341.535156 C 138.304688 341.535156 163.488281 316.351562 163.488281 285.285156 C 163.488281 254.21875 138.304688 229.035156 107.238281 229.035156 Z M 107.238281 229.035156 " clip-rule="nonzero"/></clipPath><clipPath id="71af6a38d1"><path d="M 0.988281 0.0351562 L 113.488281 0.0351562 L 113.488281 112.535156 L 0.988281 112.535156 Z M 0.988281 0.0351562 " clip-rule="nonzero"/></clipPath><clipPath id="84b8917517"><path d="M 57.238281 0.0351562 C 26.171875 0.0351562 0.988281 25.21875 0.988281 56.285156 C 0.988281 87.351562 26.171875 112.535156 57.238281 112.535156 C 88.304688 112.535156 113.488281 87.351562 113.488281 56.285156 C 113.488281 25.21875 88.304688 0.0351562 57.238281 0.0351562 Z M 57.238281 0.0351562 " clip-rule="nonzero"/></clipPath><clipPath id="f6024d839d"><rect x="0" width="114" y="0" height="113"/></clipPath></defs><g clip-path="url(#a28901e242)"><g clip-path="url(#947a93532d)"><g transform="matrix(1, 0, 0, 1, 15, 8)"><g clip-path="url(#c71ef7da71)"><g clip-path="url(#ae121bebed)"><g clip-path="url(#fdbf127acf)"><path fill="#000000" d="M 0.304688 0.816406 L 112.804688 0.816406 L 112.804688 113.316406 L 0.304688 113.316406 Z M 0.304688 0.816406 " fill-opacity="1" fill-rule="nonzero"/></g></g></g></g></g></g><path stroke-linecap="butt" transform="matrix(0.74105, 0.115523, -0.115523, 0.74105, 120.983653, 70.784227)" fill="none" stroke-linejoin="miter" d="M -0.00150262 7.997959 L 69.315334 7.99815 " stroke="#000000" stroke-width="16" stroke-opacity="1" stroke-miterlimit="4"/><g clip-path="url(#72171e973c)"><g clip-path="url(#e443105f2e)"><g transform="matrix(1, 0, 0, 1, 158, 41)"><g clip-path="url(#ef39f93e7a)"><g clip-path="url(#af6f021071)"><g clip-path="url(#608c435fa8)"><path fill="#000000" d="M 0.988281 0.0859375 L 113.488281 0.0859375 L 113.488281 112.585938 L 0.988281 112.585938 Z M 0.988281 0.0859375 " fill-opacity="1" fill-rule="nonzero"/></g></g></g></g></g></g><path stroke-linecap="butt" transform="matrix(0.341702, 0.667638, -0.667638, 0.341702, 253.029391, 136.2569)" fill="none" stroke-linejoin="miter" d="M 0.00150805 8.001956 L 83.540999 8.000008 " stroke="#000000" stroke-width="16" stroke-opacity="1" stroke-miterlimit="4"/><g clip-path="url(#acf915ed28)"><g clip-path="url(#3132117423)"><g transform="matrix(1, 0, 0, 1, 245, 184)"><g clip-path="url(#201fd6dd61)"><g clip-path="url(#fcc1ba35bf)"><g clip-path="url(#3d3858c59f)"><path fill="#000000" d="M 0.0078125 0.625 L 112.507812 0.625 L 112.507812 113.125 L 0.0078125 113.125 Z M 0.0078125 0.625 " fill-opacity="1" fill-rule="nonzero"/></g></g></g></g></g></g><path stroke-linecap="butt" transform="matrix(0.718445, -0.215259, 0.215259, 0.718445, 152.338485, 279.536173)" fill="none" stroke-linejoin="miter" d="M 0.00194099 8.00256 L 133.217633 7.9972 " stroke="#000000" stroke-width="16" stroke-opacity="1" stroke-miterlimit="4"/><g clip-path="url(#bb57012273)"><g clip-path="url(#e57d32ebfb)"><g transform="matrix(1, 0, 0, 1, 50, 229)"><g clip-path="url(#f6024d839d)"><g clip-path="url(#71af6a38d1)"><g clip-path="url(#84b8917517)"><path fill="#000000" d="M 0.988281 0.0351562 L 113.488281 0.0351562 L 113.488281 112.535156 L 0.988281 112.535156 Z M 0.988281 0.0351562 " fill-opacity="1" fill-rule="nonzero"/></g></g></g></g></g></g></svg>