<svg xmlns="http://www.w3.org/2000/svg" xmlns:xlink="http://www.w3.org/1999/xlink" width="500" zoomAndPan="magnify" viewBox="0 0 375 374.999991" height="500" preserveAspectRatio="xMidYMid meet" version="1.0"><defs><clipPath id="90c81995fc"><path d="M 111.101562 13.109375 L 185.246094 13.109375 L 185.246094 125 L 111.101562 125 Z M 111.101562 13.109375 " clip-rule="nonzero"/></clipPath><clipPath id="997c8d29a3"><path d="M 128.351562 13.109375 L 167.996094 13.109375 C 172.570312 13.109375 176.957031 14.929688 180.191406 18.164062 C 183.425781 21.398438 185.246094 25.785156 185.246094 30.359375 L 185.246094 107.722656 C 185.246094 112.296875 183.425781 116.683594 180.191406 119.921875 C 176.957031 123.15625 172.570312 124.972656 167.996094 124.972656 L 128.351562 124.972656 C 123.777344 124.972656 119.390625 123.15625 116.15625 119.921875 C 112.921875 116.683594 111.101562 112.296875 111.101562 107.722656 L 111.101562 30.359375 C 111.101562 25.785156 112.921875 21.398438 116.15625 18.164062 C 119.390625 14.929688 123.777344 13.109375 128.351562 13.109375 Z M 128.351562 13.109375 " clip-rule="nonzero"/></clipPath><clipPath id="1ab19f4013"><path d="M 0.101562 0.109375 L 74.246094 0.109375 L 74.246094 112 L 0.101562 112 Z M 0.101562 0.109375 " clip-rule="nonzero"/></clipPath><clipPath id="1bf89f1631"><path d="M 17.351562 0.109375 L 56.996094 0.109375 C 61.570312 0.109375 65.957031 1.929688 69.191406 5.164062 C 72.425781 8.398438 74.246094 12.785156 74.246094 17.359375 L 74.246094 94.722656 C 74.246094 99.296875 72.425781 103.683594 69.191406 106.921875 C 65.957031 110.15625 61.570312 111.972656 56.996094 111.972656 L 17.351562 111.972656 C 12.777344 111.972656 8.390625 110.15625 5.15625 106.921875 C 1.921875 103.683594 0.101562 99.296875 0.101562 94.722656 L 0.101562 17.359375 C 0.101562 12.785156 1.921875 8.398438 5.15625 5.164062 C 8.390625 1.929688 12.777344 0.109375 17.351562 0.109375 Z M 17.351562 0.109375 " clip-rule="nonzero"/></clipPath><clipPath id="bc5f0c65c5"><rect x="0" width="75" y="0" height="112"/></clipPath><clipPath id="0a0f17bdb9"><path d="M 111.101562 129.347656 L 185.246094 129.347656 L 185.246094 243.164062 L 111.101562 243.164062 Z M 111.101562 129.347656 " clip-rule="nonzero"/></clipPath><clipPath id="18a0af6426"><path d="M 128.351562 129.347656 L 167.996094 129.347656 C 172.570312 129.347656 176.957031 131.164062 180.191406 134.398438 C 183.425781 137.632812 185.246094 142.019531 185.246094 146.597656 L 185.246094 225.769531 C 185.246094 230.34375 183.425781 234.734375 180.191406 237.96875 C 176.957031 241.203125 172.570312 243.019531 167.996094 243.019531 L 128.351562 243.019531 C 123.777344 243.019531 119.390625 241.203125 116.15625 237.96875 C 112.921875 234.734375 111.101562 230.34375 111.101562 225.769531 L 111.101562 146.597656 C 111.101562 142.019531 112.921875 137.632812 116.15625 134.398438 C 119.390625 131.164062 123.777344 129.347656 128.351562 129.347656 Z M 128.351562 129.347656 " clip-rule="nonzero"/></clipPath><clipPath id="ed60cd5d9e"><path d="M 0.101562 0.347656 L 74.246094 0.347656 L 74.246094 114.121094 L 0.101562 114.121094 Z M 0.101562 0.347656 " clip-rule="nonzero"/></clipPath><clipPath id="85882e160a"><path d="M 17.351562 0.347656 L 56.996094 0.347656 C 61.570312 0.347656 65.957031 2.164062 69.191406 5.398438 C 72.425781 8.632812 74.246094 13.019531 74.246094 17.597656 L 74.246094 96.769531 C 74.246094 101.34375 72.425781 105.734375 69.191406 108.96875 C 65.957031 112.203125 61.570312 114.019531 56.996094 114.019531 L 17.351562 114.019531 C 12.777344 114.019531 8.390625 112.203125 5.15625 108.96875 C 1.921875 105.734375 0.101562 101.34375 0.101562 96.769531 L 0.101562 17.597656 C 0.101562 13.019531 1.921875 8.632812 5.15625 5.398438 C 8.390625 2.164062 12.777344 0.347656 17.351562 0.347656 Z M 17.351562 0.347656 " clip-rule="nonzero"/></clipPath><clipPath id="1fbae6258a"><rect x="0" width="75" y="0" height="115"/></clipPath><clipPath id="35eb105d1c"><path d="M 111.101562 247.394531 L 185.246094 247.394531 L 185.246094 362.949219 L 111.101562 362.949219 Z M 111.101562 247.394531 " clip-rule="nonzero"/></clipPath><clipPath id="a21761b346"><path d="M 128.351562 247.394531 L 167.996094 247.394531 C 172.570312 247.394531 176.957031 249.210938 180.191406 252.445312 C 183.425781 255.679688 185.246094 260.070312 185.246094 264.644531 L 185.246094 345.628906 C 185.246094 350.203125 183.425781 354.59375 180.191406 357.828125 C 176.957031 361.0625 172.570312 362.878906 167.996094 362.878906 L 128.351562 362.878906 C 123.777344 362.878906 119.390625 361.0625 116.15625 357.828125 C 112.921875 354.59375 111.101562 350.203125 111.101562 345.628906 L 111.101562 264.644531 C 111.101562 260.070312 112.921875 255.679688 116.15625 252.445312 C 119.390625 249.210938 123.777344 247.394531 128.351562 247.394531 Z M 128.351562 247.394531 " clip-rule="nonzero"/></clipPath><clipPath id="5a1121d7e6"><path d="M 0.101562 0.394531 L 74.246094 0.394531 L 74.246094 115.878906 L 0.101562 115.878906 Z M 0.101562 0.394531 " clip-rule="nonzero"/></clipPath><clipPath id="993abd8c66"><path d="M 17.351562 0.394531 L 56.996094 0.394531 C 61.570312 0.394531 65.957031 2.210938 69.191406 5.445312 C 72.425781 8.679688 74.246094 13.070312 74.246094 17.644531 L 74.246094 98.628906 C 74.246094 103.203125 72.425781 107.59375 69.191406 110.828125 C 65.957031 114.0625 61.570312 115.878906 56.996094 115.878906 L 17.351562 115.878906 C 12.777344 115.878906 8.390625 114.0625 5.15625 110.828125 C 1.921875 107.59375 0.101562 103.203125 0.101562 98.628906 L 0.101562 17.644531 C 0.101562 13.070312 1.921875 8.679688 5.15625 5.445312 C 8.390625 2.210938 12.777344 0.394531 17.351562 0.394531 Z M 17.351562 0.394531 " clip-rule="nonzero"/></clipPath><clipPath id="07e249f03f"><rect x="0" width="75" y="0" height="116"/></clipPath><clipPath id="2f78ed4ee3"><path d="M 0.363281 1.109375 L 74.503906 1.109375 L 74.503906 174.300781 L 0.363281 174.300781 Z M 0.363281 1.109375 " clip-rule="nonzero"/></clipPath><clipPath id="3a0405a827"><path d="M 17.613281 1.109375 L 57.253906 1.109375 C 61.828125 1.109375 66.21875 2.929688 69.453125 6.164062 C 72.6875 9.398438 74.503906 13.785156 74.503906 18.359375 L 74.503906 156.933594 C 74.503906 161.507812 72.6875 165.894531 69.453125 169.128906 C 66.21875 172.367188 61.828125 174.183594 57.253906 174.183594 L 17.613281 174.183594 C 13.039062 174.183594 8.648438 172.367188 5.414062 169.128906 C 2.179688 165.894531 0.363281 161.507812 0.363281 156.933594 L 0.363281 18.359375 C 0.363281 13.785156 2.179688 9.398438 5.414062 6.164062 C 8.648438 2.929688 13.039062 1.109375 17.613281 1.109375 Z M 17.613281 1.109375 " clip-rule="nonzero"/></clipPath><clipPath id="105142745b"><path d="M 0.363281 0.109375 L 74.503906 0.109375 L 74.503906 173.238281 L 0.363281 173.238281 Z M 0.363281 0.109375 " clip-rule="nonzero"/></clipPath><clipPath id="ea3afaa9cb"><path d="M 17.613281 0.109375 L 57.253906 0.109375 C 61.828125 0.109375 66.21875 1.929688 69.453125 5.164062 C 72.6875 8.398438 74.503906 12.785156 74.503906 17.359375 L 74.503906 155.933594 C 74.503906 160.507812 72.6875 164.894531 69.453125 168.128906 C 66.21875 171.367188 61.828125 173.183594 57.253906 173.183594 L 17.613281 173.183594 C 13.039062 173.183594 8.648438 171.367188 5.414062 168.128906 C 2.179688 164.894531 0.363281 160.507812 0.363281 155.933594 L 0.363281 17.359375 C 0.363281 12.785156 2.179688 8.398438 5.414062 5.164062 C 8.648438 1.929688 13.039062 0.109375 17.613281 0.109375 Z M 17.613281 0.109375 " clip-rule="nonzero"/></clipPath><clipPath id="2cdc55ef79"><rect x="0" width="75" y="0" height="174"/></clipPath><clipPath id="d48cee6a47"><path d="M 0.363281 177.808594 L 74.503906 177.808594 L 74.503906 350.996094 L 0.363281 350.996094 Z M 0.363281 177.808594 " clip-rule="nonzero"/></clipPath><clipPath id="dd1af35145"><path d="M 17.613281 177.808594 L 57.253906 177.808594 C 61.828125 177.808594 66.21875 179.625 69.453125 182.859375 C 72.6875 186.09375 74.503906 190.480469 74.503906 195.058594 L 74.503906 333.628906 C 74.503906 338.203125 72.6875 342.59375 69.453125 345.828125 C 66.21875 349.0625 61.828125 350.878906 57.253906 350.878906 L 17.613281 350.878906 C 13.039062 350.878906 8.648438 349.0625 5.414062 345.828125 C 2.179688 342.59375 0.363281 338.203125 0.363281 333.628906 L 0.363281 195.058594 C 0.363281 190.480469 2.179688 186.09375 5.414062 182.859375 C 8.648438 179.625 13.039062 177.808594 17.613281 177.808594 Z M 17.613281 177.808594 " clip-rule="nonzero"/></clipPath><clipPath id="a5d9245088"><path d="M 0.363281 0.808594 L 74.503906 0.808594 L 74.503906 173.878906 L 0.363281 173.878906 Z M 0.363281 0.808594 " clip-rule="nonzero"/></clipPath><clipPath id="cd4911bd6f"><path d="M 17.613281 0.808594 L 57.253906 0.808594 C 61.828125 0.808594 66.21875 2.625 69.453125 5.859375 C 72.6875 9.09375 74.503906 13.480469 74.503906 18.058594 L 74.503906 156.628906 C 74.503906 161.203125 72.6875 165.59375 69.453125 168.828125 C 66.21875 172.0625 61.828125 173.878906 57.253906 173.878906 L 17.613281 173.878906 C 13.039062 173.878906 8.648438 172.0625 5.414062 168.828125 C 2.179688 165.59375 0.363281 161.203125 0.363281 156.628906 L 0.363281 18.058594 C 0.363281 13.480469 2.179688 9.09375 5.414062 5.859375 C 8.648438 2.625 13.039062 0.808594 17.613281 0.808594 Z M 17.613281 0.808594 " clip-rule="nonzero"/></clipPath><clipPath id="8794e14a61"><rect x="0" width="75" y="0" height="174"/></clipPath><clipPath id="70ba0e4d52"><rect x="0" width="75" y="0" height="352"/></clipPath><clipPath id="d73ac118f2"><path d="M 189.800781 13.109375 L 263.941406 13.109375 L 263.941406 97 L 189.800781 97 Z M 189.800781 13.109375 " clip-rule="nonzero"/></clipPath><clipPath id="04978fa24b"><path d="M 207.050781 13.109375 L 246.691406 13.109375 C 251.265625 13.109375 255.652344 14.929688 258.890625 18.164062 C 262.125 21.398438 263.941406 25.785156 263.941406 30.359375 L 263.941406 79.664062 C 263.941406 84.238281 262.125 88.625 258.890625 91.863281 C 255.652344 95.097656 251.265625 96.914062 246.691406 96.914062 L 207.050781 96.914062 C 202.476562 96.914062 198.085938 95.097656 194.851562 91.863281 C 191.617188 88.625 189.800781 84.238281 189.800781 79.664062 L 189.800781 30.359375 C 189.800781 25.785156 191.617188 21.398438 194.851562 18.164062 C 198.085938 14.929688 202.476562 13.109375 207.050781 13.109375 Z M 207.050781 13.109375 " clip-rule="nonzero"/></clipPath><clipPath id="e93bf19bd3"><path d="M 0.800781 0.109375 L 74.941406 0.109375 L 74.941406 83.960938 L 0.800781 83.960938 Z M 0.800781 0.109375 " clip-rule="nonzero"/></clipPath><clipPath id="cadf2d9c3d"><path d="M 18.050781 0.109375 L 57.691406 0.109375 C 62.265625 0.109375 66.652344 1.929688 69.890625 5.164062 C 73.125 8.398438 74.941406 12.785156 74.941406 17.359375 L 74.941406 66.664062 C 74.941406 71.238281 73.125 75.625 69.890625 78.863281 C 66.652344 82.097656 62.265625 83.914062 57.691406 83.914062 L 18.050781 83.914062 C 13.476562 83.914062 9.085938 82.097656 5.851562 78.863281 C 2.617188 75.625 0.800781 71.238281 0.800781 66.664062 L 0.800781 17.359375 C 0.800781 12.785156 2.617188 8.398438 5.851562 5.164062 C 9.085938 1.929688 13.476562 0.109375 18.050781 0.109375 Z M 18.050781 0.109375 " clip-rule="nonzero"/></clipPath><clipPath id="51b09d22dc"><rect x="0" width="75" y="0" height="84"/></clipPath><clipPath id="ca54287406"><path d="M 189.800781 102.089844 L 263.941406 102.089844 L 263.941406 186 L 189.800781 186 Z M 189.800781 102.089844 " clip-rule="nonzero"/></clipPath><clipPath id="43ac3c3f22"><path d="M 207.050781 102.089844 L 246.691406 102.089844 C 251.265625 102.089844 255.652344 103.90625 258.890625 107.140625 C 262.125 110.375 263.941406 114.765625 263.941406 119.339844 L 263.941406 168.640625 C 263.941406 173.21875 262.125 177.605469 258.890625 180.839844 C 255.652344 184.074219 251.265625 185.890625 246.691406 185.890625 L 207.050781 185.890625 C 202.476562 185.890625 198.085938 184.074219 194.851562 180.839844 C 191.617188 177.605469 189.800781 173.21875 189.800781 168.640625 L 189.800781 119.339844 C 189.800781 114.765625 191.617188 110.375 194.851562 107.140625 C 198.085938 103.90625 202.476562 102.089844 207.050781 102.089844 Z M 207.050781 102.089844 " clip-rule="nonzero"/></clipPath><clipPath id="ac2ce1f231"><path d="M 0.800781 0.0898438 L 74.941406 0.0898438 L 74.941406 84 L 0.800781 84 Z M 0.800781 0.0898438 " clip-rule="nonzero"/></clipPath><clipPath id="bb898cbae0"><path d="M 18.050781 0.0898438 L 57.691406 0.0898438 C 62.265625 0.0898438 66.652344 1.90625 69.890625 5.140625 C 73.125 8.375 74.941406 12.765625 74.941406 17.339844 L 74.941406 66.640625 C 74.941406 71.21875 73.125 75.605469 69.890625 78.839844 C 66.652344 82.074219 62.265625 83.890625 57.691406 83.890625 L 18.050781 83.890625 C 13.476562 83.890625 9.085938 82.074219 5.851562 78.839844 C 2.617188 75.605469 0.800781 71.21875 0.800781 66.640625 L 0.800781 17.339844 C 0.800781 12.765625 2.617188 8.375 5.851562 5.140625 C 9.085938 1.90625 13.476562 0.0898438 18.050781 0.0898438 Z M 18.050781 0.0898438 " clip-rule="nonzero"/></clipPath><clipPath id="cd77202809"><rect x="0" width="75" y="0" height="84"/></clipPath><clipPath id="cd8843887c"><path d="M 189.800781 191.359375 L 263.941406 191.359375 L 263.941406 275.347656 L 189.800781 275.347656 Z M 189.800781 191.359375 " clip-rule="nonzero"/></clipPath><clipPath id="a6050f2e8c"><path d="M 207.050781 191.359375 L 246.691406 191.359375 C 251.265625 191.359375 255.652344 193.175781 258.890625 196.410156 C 262.125 199.644531 263.941406 204.03125 263.941406 208.609375 L 263.941406 257.910156 C 263.941406 262.488281 262.125 266.875 258.890625 270.109375 C 255.652344 273.34375 251.265625 275.160156 246.691406 275.160156 L 207.050781 275.160156 C 202.476562 275.160156 198.085938 273.34375 194.851562 270.109375 C 191.617188 266.875 189.800781 262.488281 189.800781 257.910156 L 189.800781 208.609375 C 189.800781 204.03125 191.617188 199.644531 194.851562 196.410156 C 198.085938 193.175781 202.476562 191.359375 207.050781 191.359375 Z M 207.050781 191.359375 " clip-rule="nonzero"/></clipPath><clipPath id="315e243b59"><path d="M 0.800781 0.359375 L 74.941406 0.359375 L 74.941406 84.28125 L 0.800781 84.28125 Z M 0.800781 0.359375 " clip-rule="nonzero"/></clipPath><clipPath id="ebcce93d79"><path d="M 18.050781 0.359375 L 57.691406 0.359375 C 62.265625 0.359375 66.652344 2.175781 69.890625 5.410156 C 73.125 8.644531 74.941406 13.03125 74.941406 17.609375 L 74.941406 66.910156 C 74.941406 71.488281 73.125 75.875 69.890625 79.109375 C 66.652344 82.34375 62.265625 84.160156 57.691406 84.160156 L 18.050781 84.160156 C 13.476562 84.160156 9.085938 82.34375 5.851562 79.109375 C 2.617188 75.875 0.800781 71.488281 0.800781 66.910156 L 0.800781 17.609375 C 0.800781 13.03125 2.617188 8.644531 5.851562 5.410156 C 9.085938 2.175781 13.476562 0.359375 18.050781 0.359375 Z M 18.050781 0.359375 " clip-rule="nonzero"/></clipPath><clipPath id="e8a04822a9"><rect x="0" width="75" y="0" height="85"/></clipPath><clipPath id="0215666893"><path d="M 189.800781 279.074219 L 263.941406 279.074219 L 263.941406 363 L 189.800781 363 Z M 189.800781 279.074219 " clip-rule="nonzero"/></clipPath><clipPath id="2b3f782a7a"><path d="M 207.050781 279.074219 L 246.691406 279.074219 C 251.265625 279.074219 255.652344 280.894531 258.890625 284.128906 C 262.125 287.363281 263.941406 291.75 263.941406 296.324219 L 263.941406 345.628906 C 263.941406 350.203125 262.125 354.59375 258.890625 357.828125 C 255.652344 361.0625 251.265625 362.878906 246.691406 362.878906 L 207.050781 362.878906 C 202.476562 362.878906 198.085938 361.0625 194.851562 357.828125 C 191.617188 354.59375 189.800781 350.203125 189.800781 345.628906 L 189.800781 296.324219 C 189.800781 291.75 191.617188 287.363281 194.851562 284.128906 C 198.085938 280.894531 202.476562 279.074219 207.050781 279.074219 Z M 207.050781 279.074219 " clip-rule="nonzero"/></clipPath><clipPath id="6560fb397f"><path d="M 0.800781 0.0742188 L 74.941406 0.0742188 L 74.941406 83.878906 L 0.800781 83.878906 Z M 0.800781 0.0742188 " clip-rule="nonzero"/></clipPath><clipPath id="70d71000f6"><path d="M 18.050781 0.0742188 L 57.691406 0.0742188 C 62.265625 0.0742188 66.652344 1.894531 69.890625 5.128906 C 73.125 8.363281 74.941406 12.75 74.941406 17.324219 L 74.941406 66.628906 C 74.941406 71.203125 73.125 75.59375 69.890625 78.828125 C 66.652344 82.0625 62.265625 83.878906 57.691406 83.878906 L 18.050781 83.878906 C 13.476562 83.878906 9.085938 82.0625 5.851562 78.828125 C 2.617188 75.59375 0.800781 71.203125 0.800781 66.628906 L 0.800781 17.324219 C 0.800781 12.75 2.617188 8.363281 5.851562 5.128906 C 9.085938 1.894531 13.476562 0.0742188 18.050781 0.0742188 Z M 18.050781 0.0742188 " clip-rule="nonzero"/></clipPath><clipPath id="2c3e10196d"><rect x="0" width="75" y="0" height="84"/></clipPath><clipPath id="81eb3dec24"><path d="M 268.230469 12 L 342.75 12 L 342.75 79.527344 L 268.230469 79.527344 Z M 268.230469 12 " clip-rule="nonzero"/></clipPath><clipPath id="0211cbdbaa"><path d="M 285.746094 12.121094 L 325.386719 12.121094 C 329.960938 12.121094 334.351562 13.9375 337.585938 17.171875 C 340.820312 20.40625 342.636719 24.796875 342.636719 29.371094 L 342.636719 62.277344 C 342.636719 66.851562 340.820312 71.238281 337.585938 74.476562 C 334.351562 77.710938 329.960938 79.527344 325.386719 79.527344 L 285.746094 79.527344 C 281.171875 79.527344 276.78125 77.710938 273.546875 74.476562 C 270.3125 71.238281 268.496094 66.851562 268.496094 62.277344 L 268.496094 29.371094 C 268.496094 24.796875 270.3125 20.40625 273.546875 17.171875 C 276.78125 13.9375 281.171875 12.121094 285.746094 12.121094 Z M 285.746094 12.121094 " clip-rule="nonzero"/></clipPath><clipPath id="94326574d7"><path d="M 0.320312 0 L 74.71875 0 L 74.71875 67.527344 L 0.320312 67.527344 Z M 0.320312 0 " clip-rule="nonzero"/></clipPath><clipPath id="ea60c12de8"><path d="M 17.746094 0.121094 L 57.386719 0.121094 C 61.960938 0.121094 66.351562 1.9375 69.585938 5.171875 C 72.820312 8.40625 74.636719 12.796875 74.636719 17.371094 L 74.636719 50.277344 C 74.636719 54.851562 72.820312 59.238281 69.585938 62.476562 C 66.351562 65.710938 61.960938 67.527344 57.386719 67.527344 L 17.746094 67.527344 C 13.171875 67.527344 8.78125 65.710938 5.546875 62.476562 C 2.3125 59.238281 0.496094 54.851562 0.496094 50.277344 L 0.496094 17.371094 C 0.496094 12.796875 2.3125 8.40625 5.546875 5.171875 C 8.78125 1.9375 13.171875 0.121094 17.746094 0.121094 Z M 17.746094 0.121094 " clip-rule="nonzero"/></clipPath><clipPath id="ed81bbf91e"><rect x="0" width="75" y="0" height="68"/></clipPath><clipPath id="9514129edc"><path d="M 268.230469 83 L 342.75 83 L 342.75 150.578125 L 268.230469 150.578125 Z M 268.230469 83 " clip-rule="nonzero"/></clipPath><clipPath id="ffca351e43"><path d="M 285.746094 83.171875 L 325.386719 83.171875 C 329.960938 83.171875 334.351562 84.988281 337.585938 88.222656 C 340.820312 91.457031 342.636719 95.847656 342.636719 100.421875 L 342.636719 133.328125 C 342.636719 137.902344 340.820312 142.292969 337.585938 145.527344 C 334.351562 148.761719 329.960938 150.578125 325.386719 150.578125 L 285.746094 150.578125 C 281.171875 150.578125 276.78125 148.761719 273.546875 145.527344 C 270.3125 142.292969 268.496094 137.902344 268.496094 133.328125 L 268.496094 100.421875 C 268.496094 95.847656 270.3125 91.457031 273.546875 88.222656 C 276.78125 84.988281 281.171875 83.171875 285.746094 83.171875 Z M 285.746094 83.171875 " clip-rule="nonzero"/></clipPath><clipPath id="4924707e69"><path d="M 0.320312 0.0390625 L 74.71875 0.0390625 L 74.71875 67.578125 L 0.320312 67.578125 Z M 0.320312 0.0390625 " clip-rule="nonzero"/></clipPath><clipPath id="83c59575ba"><path d="M 17.746094 0.171875 L 57.386719 0.171875 C 61.960938 0.171875 66.351562 1.988281 69.585938 5.222656 C 72.820312 8.457031 74.636719 12.847656 74.636719 17.421875 L 74.636719 50.328125 C 74.636719 54.902344 72.820312 59.292969 69.585938 62.527344 C 66.351562 65.761719 61.960938 67.578125 57.386719 67.578125 L 17.746094 67.578125 C 13.171875 67.578125 8.78125 65.761719 5.546875 62.527344 C 2.3125 59.292969 0.496094 54.902344 0.496094 50.328125 L 0.496094 17.421875 C 0.496094 12.847656 2.3125 8.457031 5.546875 5.222656 C 8.78125 1.988281 13.171875 0.171875 17.746094 0.171875 Z M 17.746094 0.171875 " clip-rule="nonzero"/></clipPath><clipPath id="0fb54c6462"><rect x="0" width="75" y="0" height="68"/></clipPath><clipPath id="0df1e53830"><path d="M 268.230469 295.210938 L 342.75 295.210938 L 342.75 362.878906 L 268.230469 362.878906 Z M 268.230469 295.210938 " clip-rule="nonzero"/></clipPath><clipPath id="60e69eeecf"><path d="M 285.746094 295.472656 L 325.386719 295.472656 C 329.960938 295.472656 334.351562 297.289062 337.585938 300.523438 C 340.820312 303.761719 342.636719 308.148438 342.636719 312.722656 L 342.636719 345.628906 C 342.636719 350.203125 340.820312 354.59375 337.585938 357.828125 C 334.351562 361.0625 329.960938 362.878906 325.386719 362.878906 L 285.746094 362.878906 C 281.171875 362.878906 276.78125 361.0625 273.546875 357.828125 C 270.3125 354.59375 268.496094 350.203125 268.496094 345.628906 L 268.496094 312.722656 C 268.496094 308.148438 270.3125 303.761719 273.546875 300.523438 C 276.78125 297.289062 281.171875 295.472656 285.746094 295.472656 Z M 285.746094 295.472656 " clip-rule="nonzero"/></clipPath><clipPath id="492a3c7735"><path d="M 0.320312 0.441406 L 74.71875 0.441406 L 74.71875 67.878906 L 0.320312 67.878906 Z M 0.320312 0.441406 " clip-rule="nonzero"/></clipPath><clipPath id="d302686778"><path d="M 17.746094 0.472656 L 57.386719 0.472656 C 61.960938 0.472656 66.351562 2.289062 69.585938 5.523438 C 72.820312 8.761719 74.636719 13.148438 74.636719 17.722656 L 74.636719 50.628906 C 74.636719 55.203125 72.820312 59.59375 69.585938 62.828125 C 66.351562 66.0625 61.960938 67.878906 57.386719 67.878906 L 17.746094 67.878906 C 13.171875 67.878906 8.78125 66.0625 5.546875 62.828125 C 2.3125 59.59375 0.496094 55.203125 0.496094 50.628906 L 0.496094 17.722656 C 0.496094 13.148438 2.3125 8.761719 5.546875 5.523438 C 8.78125 2.289062 13.171875 0.472656 17.746094 0.472656 Z M 17.746094 0.472656 " clip-rule="nonzero"/></clipPath><clipPath id="fabd5c01d5"><rect x="0" width="75" y="0" height="68"/></clipPath><clipPath id="2e616995a0"><path d="M 268.230469 154 L 342.75 154 L 342.75 221.539062 L 268.230469 221.539062 Z M 268.230469 154 " clip-rule="nonzero"/></clipPath><clipPath id="5638517d17"><path d="M 285.746094 154.132812 L 325.386719 154.132812 C 329.960938 154.132812 334.351562 155.949219 337.585938 159.183594 C 340.820312 162.417969 342.636719 166.808594 342.636719 171.382812 L 342.636719 204.289062 C 342.636719 208.863281 340.820312 213.25 337.585938 216.488281 C 334.351562 219.722656 329.960938 221.539062 325.386719 221.539062 L 285.746094 221.539062 C 281.171875 221.539062 276.78125 219.722656 273.546875 216.488281 C 270.3125 213.25 268.496094 208.863281 268.496094 204.289062 L 268.496094 171.382812 C 268.496094 166.808594 270.3125 162.417969 273.546875 159.183594 C 276.78125 155.949219 281.171875 154.132812 285.746094 154.132812 Z M 285.746094 154.132812 " clip-rule="nonzero"/></clipPath><clipPath id="92e7330cec"><path d="M 0.320312 0.078125 L 74.71875 0.078125 L 74.71875 67.539062 L 0.320312 67.539062 Z M 0.320312 0.078125 " clip-rule="nonzero"/></clipPath><clipPath id="d3ac63e5a2"><path d="M 17.746094 0.132812 L 57.386719 0.132812 C 61.960938 0.132812 66.351562 1.949219 69.585938 5.183594 C 72.820312 8.417969 74.636719 12.808594 74.636719 17.382812 L 74.636719 50.289062 C 74.636719 54.863281 72.820312 59.25 69.585938 62.488281 C 66.351562 65.722656 61.960938 67.539062 57.386719 67.539062 L 17.746094 67.539062 C 13.171875 67.539062 8.78125 65.722656 5.546875 62.488281 C 2.3125 59.25 0.496094 54.863281 0.496094 50.289062 L 0.496094 17.382812 C 0.496094 12.808594 2.3125 8.417969 5.546875 5.183594 C 8.78125 1.949219 13.171875 0.132812 17.746094 0.132812 Z M 17.746094 0.132812 " clip-rule="nonzero"/></clipPath><clipPath id="58368e1aca"><rect x="0" width="75" y="0" height="68"/></clipPath><clipPath id="de6cb3b42a"><path d="M 268.230469 225 L 342.75 225 L 342.75 292.589844 L 268.230469 292.589844 Z M 268.230469 225 " clip-rule="nonzero"/></clipPath><clipPath id="2a5cd45257"><path d="M 285.746094 225.183594 L 325.386719 225.183594 C 329.960938 225.183594 334.351562 227 337.585938 230.234375 C 340.820312 233.46875 342.636719 237.859375 342.636719 242.433594 L 342.636719 275.339844 C 342.636719 279.914062 340.820312 284.300781 337.585938 287.539062 C 334.351562 290.773438 329.960938 292.589844 325.386719 292.589844 L 285.746094 292.589844 C 281.171875 292.589844 276.78125 290.773438 273.546875 287.539062 C 270.3125 284.300781 268.496094 279.914062 268.496094 275.339844 L 268.496094 242.433594 C 268.496094 237.859375 270.3125 233.46875 273.546875 230.234375 C 276.78125 227 281.171875 225.183594 285.746094 225.183594 Z M 285.746094 225.183594 " clip-rule="nonzero"/></clipPath><clipPath id="70bbbd2e07"><path d="M 0.320312 0.121094 L 74.71875 0.121094 L 74.71875 67.589844 L 0.320312 67.589844 Z M 0.320312 0.121094 " clip-rule="nonzero"/></clipPath><clipPath id="5f2e884338"><path d="M 17.746094 0.183594 L 57.386719 0.183594 C 61.960938 0.183594 66.351562 2 69.585938 5.234375 C 72.820312 8.46875 74.636719 12.859375 74.636719 17.433594 L 74.636719 50.339844 C 74.636719 54.914062 72.820312 59.300781 69.585938 62.539062 C 66.351562 65.773438 61.960938 67.589844 57.386719 67.589844 L 17.746094 67.589844 C 13.171875 67.589844 8.78125 65.773438 5.546875 62.539062 C 2.3125 59.300781 0.496094 54.914062 0.496094 50.339844 L 0.496094 17.433594 C 0.496094 12.859375 2.3125 8.46875 5.546875 5.234375 C 8.78125 2 13.171875 0.183594 17.746094 0.183594 Z M 17.746094 0.183594 " clip-rule="nonzero"/></clipPath><clipPath id="3e5eac7f34"><rect x="0" width="75" y="0" height="68"/></clipPath></defs><g clip-path="url(#90c81995fc)"><g clip-path="url(#997c8d29a3)"><g transform="matrix(1, 0, 0, 1, 111, 13)"><g clip-path="url(#bc5f0c65c5)"><g clip-path="url(#1ab19f4013)"><g clip-path="url(#1bf89f1631)"><path fill="#000000" d="M 0.101562 0.109375 L 74.246094 0.109375 L 74.246094 111.902344 L 0.101562 111.902344 Z M 0.101562 0.109375 " fill-opacity="1" fill-rule="nonzero"/></g></g></g></g></g></g><g clip-path="url(#0a0f17bdb9)"><g clip-path="url(#18a0af6426)"><g transform="matrix(1, 0, 0, 1, 111, 129)"><g clip-path="url(#1fbae6258a)"><g clip-path="url(#ed60cd5d9e)"><g clip-path="url(#85882e160a)"><path fill="#000000" d="M 0.101562 0.347656 L 74.246094 0.347656 L 74.246094 114.164062 L 0.101562 114.164062 Z M 0.101562 0.347656 " fill-opacity="1" fill-rule="nonzero"/></g></g></g></g></g></g><g clip-path="url(#35eb105d1c)"><g clip-path="url(#a21761b346)"><g transform="matrix(1, 0, 0, 1, 111, 247)"><g clip-path="url(#07e249f03f)"><g clip-path="url(#5a1121d7e6)"><g clip-path="url(#993abd8c66)"><path fill="#000000" d="M 0.101562 0.394531 L 74.246094 0.394531 L 74.246094 115.949219 L 0.101562 115.949219 Z M 0.101562 0.394531 " fill-opacity="1" fill-rule="nonzero"/></g></g></g></g></g></g><g transform="matrix(1, 0, 0, 1, 32, 12)"><g clip-path="url(#70ba0e4d52)"><g clip-path="url(#2f78ed4ee3)"><g clip-path="url(#3a0405a827)"><g transform="matrix(1, 0, 0, 1, -0.000000000000007105, 1)"><g clip-path="url(#2cdc55ef79)"><g clip-path="url(#105142745b)"><g clip-path="url(#ea3afaa9cb)"><path fill="#000000" d="M 0.363281 0.109375 L 74.503906 0.109375 L 74.503906 173.300781 L 0.363281 173.300781 Z M 0.363281 0.109375 " fill-opacity="1" fill-rule="nonzero"/></g></g></g></g></g></g><g clip-path="url(#d48cee6a47)"><g clip-path="url(#dd1af35145)"><g transform="matrix(1, 0, 0, 1, -0.000000000000007105, 177)"><g clip-path="url(#8794e14a61)"><g clip-path="url(#a5d9245088)"><g clip-path="url(#cd4911bd6f)"><path fill="#000000" d="M 0.363281 0.808594 L 74.503906 0.808594 L 74.503906 173.996094 L 0.363281 173.996094 Z M 0.363281 0.808594 " fill-opacity="1" fill-rule="nonzero"/></g></g></g></g></g></g></g></g><g clip-path="url(#d73ac118f2)"><g clip-path="url(#04978fa24b)"><g transform="matrix(1, 0, 0, 1, 189, 13)"><g clip-path="url(#51b09d22dc)"><g clip-path="url(#e93bf19bd3)"><g clip-path="url(#cadf2d9c3d)"><path fill="#000000" d="M 0.800781 0.109375 L 74.941406 0.109375 L 74.941406 83.808594 L 0.800781 83.808594 Z M 0.800781 0.109375 " fill-opacity="1" fill-rule="nonzero"/></g></g></g></g></g></g><g clip-path="url(#ca54287406)"><g clip-path="url(#43ac3c3f22)"><g transform="matrix(1, 0, 0, 1, 189, 102)"><g clip-path="url(#cd77202809)"><g clip-path="url(#ac2ce1f231)"><g clip-path="url(#bb898cbae0)"><path fill="#000000" d="M 0.800781 0.0898438 L 74.941406 0.0898438 L 74.941406 83.789062 L 0.800781 83.789062 Z M 0.800781 0.0898438 " fill-opacity="1" fill-rule="nonzero"/></g></g></g></g></g></g><g clip-path="url(#cd8843887c)"><g clip-path="url(#a6050f2e8c)"><g transform="matrix(1, 0, 0, 1, 189, 191)"><g clip-path="url(#e8a04822a9)"><g clip-path="url(#315e243b59)"><g clip-path="url(#ebcce93d79)"><path fill="#000000" d="M 0.800781 0.359375 L 74.941406 0.359375 L 74.941406 84.054688 L 0.800781 84.054688 Z M 0.800781 0.359375 " fill-opacity="1" fill-rule="nonzero"/></g></g></g></g></g></g><g clip-path="url(#0215666893)"><g clip-path="url(#2b3f782a7a)"><g transform="matrix(1, 0, 0, 1, 189, 279)"><g clip-path="url(#2c3e10196d)"><g clip-path="url(#6560fb397f)"><g clip-path="url(#70d71000f6)"><path fill="#000000" d="M 0.800781 0.0742188 L 74.941406 0.0742188 L 74.941406 83.773438 L 0.800781 83.773438 Z M 0.800781 0.0742188 " fill-opacity="1" fill-rule="nonzero"/></g></g></g></g></g></g><g clip-path="url(#81eb3dec24)"><g clip-path="url(#0211cbdbaa)"><g transform="matrix(1, 0, 0, 1, 268, 12)"><g clip-path="url(#ed81bbf91e)"><g clip-path="url(#94326574d7)"><g clip-path="url(#ea60c12de8)"><path fill="#000000" d="M 0.496094 0.121094 L 74.75 0.121094 L 74.75 67.527344 L 0.496094 67.527344 Z M 0.496094 0.121094 " fill-opacity="1" fill-rule="nonzero"/></g></g></g></g></g></g><g clip-path="url(#9514129edc)"><g clip-path="url(#ffca351e43)"><g transform="matrix(1, 0, 0, 1, 268, 83)"><g clip-path="url(#0fb54c6462)"><g clip-path="url(#4924707e69)"><g clip-path="url(#83c59575ba)"><path fill="#000000" d="M 0.496094 0.171875 L 74.75 0.171875 L 74.75 67.578125 L 0.496094 67.578125 Z M 0.496094 0.171875 " fill-opacity="1" fill-rule="nonzero"/></g></g></g></g></g></g><g clip-path="url(#0df1e53830)"><g clip-path="url(#60e69eeecf)"><g transform="matrix(1, 0, 0, 1, 268, 295)"><g clip-path="url(#fabd5c01d5)"><g clip-path="url(#492a3c7735)"><g clip-path="url(#d302686778)"><path fill="#000000" d="M 0.496094 0.472656 L 74.75 0.472656 L 74.75 67.878906 L 0.496094 67.878906 Z M 0.496094 0.472656 " fill-opacity="1" fill-rule="nonzero"/></g></g></g></g></g></g><g clip-path="url(#2e616995a0)"><g clip-path="url(#5638517d17)"><g transform="matrix(1, 0, 0, 1, 268, 154)"><g clip-path="url(#58368e1aca)"><g clip-path="url(#92e7330cec)"><g clip-path="url(#d3ac63e5a2)"><path fill="#000000" d="M 0.496094 0.132812 L 74.75 0.132812 L 74.75 67.539062 L 0.496094 67.539062 Z M 0.496094 0.132812 " fill-opacity="1" fill-rule="nonzero"/></g></g></g></g></g></g><g clip-path="url(#de6cb3b42a)"><g clip-path="url(#2a5cd45257)"><g transform="matrix(1, 0, 0, 1, 268, 225)"><g clip-path="url(#3e5eac7f34)"><g clip-path="url(#70bbbd2e07)"><g clip-path="url(#5f2e884338)"><path fill="#000000" d="M 0.496094 0.183594 L 74.75 0.183594 L 74.75 67.589844 L 0.496094 67.589844 Z M 0.496094 0.183594 " fill-opacity="1" fill-rule="nonzero"/></g></g></g></g></g></g></svg>