<svg xmlns="http://www.w3.org/2000/svg" xmlns:xlink="http://www.w3.org/1999/xlink" width="500" zoomAndPan="magnify" viewBox="0 0 375 374.999991" height="500" preserveAspectRatio="xMidYMid meet" version="1.0"><defs><clipPath id="aa8db8ff16"><path d="M 3.117188 3.117188 L 371.882812 3.117188 L 371.882812 371.882812 L 3.117188 371.882812 Z M 3.117188 3.117188 " clip-rule="nonzero"/></clipPath><clipPath id="2e41b90714"><path d="M 187.5 3.117188 C 85.667969 3.117188 3.117188 85.667969 3.117188 187.5 C 3.117188 289.332031 85.667969 371.882812 187.5 371.882812 C 289.332031 371.882812 371.882812 289.332031 371.882812 187.5 C 371.882812 85.667969 289.332031 3.117188 187.5 3.117188 Z M 187.5 3.117188 " clip-rule="nonzero"/></clipPath><clipPath id="270893b9d6"><path d="M 0.117188 0.117188 L 368.882812 0.117188 L 368.882812 368.882812 L 0.117188 368.882812 Z M 0.117188 0.117188 " clip-rule="nonzero"/></clipPath><clipPath id="b264867426"><path d="M 184.5 0.117188 C 82.667969 0.117188 0.117188 82.667969 0.117188 184.5 C 0.117188 286.332031 82.667969 368.882812 184.5 368.882812 C 286.332031 368.882812 368.882812 286.332031 368.882812 184.5 C 368.882812 82.667969 286.332031 0.117188 184.5 0.117188 Z M 184.5 0.117188 " clip-rule="nonzero"/></clipPath><clipPath id="be877f9b48"><rect x="0" width="369" y="0" height="369"/></clipPath><clipPath id="301a8ddb91"><path d="M 9.613281 145.03125 L 364.363281 145.03125 L 364.363281 229.78125 L 9.613281 229.78125 Z M 9.613281 145.03125 " clip-rule="nonzero"/></clipPath><clipPath id="8e8245947c"><path d="M 9.613281 170.53125 L 9.613281 204.222656 C 9.613281 218.308594 21.03125 229.722656 35.113281 229.722656 L 338.855469 229.722656 C 352.941406 229.722656 364.355469 218.308594 364.355469 204.222656 L 364.355469 170.53125 C 364.355469 156.445312 352.941406 145.03125 338.855469 145.03125 L 35.113281 145.03125 C 21.03125 145.03125 9.613281 156.445312 9.613281 170.53125 Z M 9.613281 170.53125 " clip-rule="nonzero"/></clipPath></defs><g clip-path="url(#aa8db8ff16)"><g clip-path="url(#2e41b90714)"><g transform="matrix(1, 0, 0, 1, 3, 3)"><g clip-path="url(#be877f9b48)"><g clip-path="url(#270893b9d6)"><g clip-path="url(#b264867426)"><path fill="#000000" d="M 0.117188 0.117188 L 368.882812 0.117188 L 368.882812 368.882812 L 0.117188 368.882812 Z M 0.117188 0.117188 " fill-opacity="1" fill-rule="nonzero"/></g></g></g></g></g></g><g clip-path="url(#301a8ddb91)"><g clip-path="url(#8e8245947c)"><path fill="#ffffff" d="M 364.355469 229.691406 C 350.203125 229.691406 343.535156 208.480469 337.089844 187.96875 C 331.078125 168.84375 324.863281 149.070312 313.671875 149.070312 C 302.480469 149.070312 296.261719 168.84375 290.253906 187.96875 C 283.804688 208.480469 277.136719 229.691406 262.988281 229.691406 C 248.835938 229.691406 242.171875 208.480469 235.726562 187.96875 C 229.714844 168.84375 223.5 149.070312 212.308594 149.070312 C 201.121094 149.070312 194.902344 168.84375 188.894531 187.96875 C 182.445312 208.480469 175.78125 229.691406 161.632812 229.691406 C 147.484375 229.691406 140.816406 208.480469 134.371094 187.96875 C 128.359375 168.84375 122.144531 149.070312 110.957031 149.070312 C 99.765625 149.070312 93.550781 168.84375 87.539062 187.96875 C 81.09375 208.480469 74.429688 229.691406 60.28125 229.691406 C 46.132812 229.691406 39.46875 208.480469 33.023438 187.96875 C 27.011719 168.84375 20.800781 149.070312 9.609375 149.070312 L 9.609375 145.035156 C 23.757812 145.035156 30.421875 166.25 36.867188 186.761719 C 42.878906 205.886719 49.09375 225.660156 60.28125 225.660156 C 71.46875 225.660156 77.683594 205.882812 83.695312 186.761719 C 90.140625 166.25 96.808594 145.035156 110.957031 145.035156 C 125.105469 145.035156 131.769531 166.25 138.214844 186.761719 C 144.226562 205.882812 150.441406 225.660156 161.632812 225.660156 C 172.824219 225.660156 179.039062 205.882812 185.046875 186.761719 C 191.496094 166.25 198.164062 145.035156 212.308594 145.035156 C 226.457031 145.035156 233.125 166.25 239.570312 186.761719 C 245.582031 205.882812 251.796875 225.660156 262.988281 225.660156 C 274.179688 225.660156 280.394531 205.882812 286.40625 186.761719 C 292.851562 166.25 299.519531 145.035156 313.671875 145.035156 C 327.820312 145.035156 334.488281 166.25 340.9375 186.761719 C 346.945312 205.882812 353.160156 225.660156 364.355469 225.660156 L 364.355469 229.691406 " fill-opacity="1" fill-rule="nonzero"/></g></g></svg>