<svg xmlns="http://www.w3.org/2000/svg" xmlns:xlink="http://www.w3.org/1999/xlink" width="500" zoomAndPan="magnify" viewBox="0 0 375 374.999991" height="500" preserveAspectRatio="xMidYMid meet" version="1.0"><defs><clipPath id="21498f3056"><path d="M 9.949219 17.4375 L 117.679688 17.4375 L 117.679688 125.167969 L 9.949219 125.167969 Z M 9.949219 17.4375 " clip-rule="nonzero"/></clipPath><clipPath id="8db8ed873b"><path d="M 63.8125 17.4375 C 34.066406 17.4375 9.949219 41.554688 9.949219 71.304688 C 9.949219 101.054688 34.066406 125.167969 63.8125 125.167969 C 93.5625 125.167969 117.679688 101.054688 117.679688 71.304688 C 117.679688 41.554688 93.5625 17.4375 63.8125 17.4375 Z M 63.8125 17.4375 " clip-rule="nonzero"/></clipPath><clipPath id="a50e7f3145"><path d="M 212.308594 57.378906 L 320.039062 57.378906 L 320.039062 165.109375 L 212.308594 165.109375 Z M 212.308594 57.378906 " clip-rule="nonzero"/></clipPath><clipPath id="fb179fdad0"><path d="M 266.171875 57.378906 C 236.425781 57.378906 212.308594 81.496094 212.308594 111.246094 C 212.308594 140.996094 236.425781 165.109375 266.171875 165.109375 C 295.921875 165.109375 320.039062 140.996094 320.039062 111.246094 C 320.039062 81.496094 295.921875 57.378906 266.171875 57.378906 Z M 266.171875 57.378906 " clip-rule="nonzero"/></clipPath><clipPath id="fd70df698b"><path d="M 167.324219 228.914062 L 275.054688 228.914062 L 275.054688 336.644531 L 167.324219 336.644531 Z M 167.324219 228.914062 " clip-rule="nonzero"/></clipPath><clipPath id="105644bc93"><path d="M 221.1875 228.914062 C 191.441406 228.914062 167.324219 253.03125 167.324219 282.78125 C 167.324219 312.527344 191.441406 336.644531 221.1875 336.644531 C 250.9375 336.644531 275.054688 312.527344 275.054688 282.78125 C 275.054688 253.03125 250.9375 228.914062 221.1875 228.914062 Z M 221.1875 228.914062 " clip-rule="nonzero"/></clipPath><clipPath id="ee88d4118d"><path d="M 28.628906 177.832031 L 136.359375 177.832031 L 136.359375 285.5625 L 28.628906 285.5625 Z M 28.628906 177.832031 " clip-rule="nonzero"/></clipPath><clipPath id="50f2c0e1d0"><path d="M 82.492188 177.832031 C 52.742188 177.832031 28.628906 201.949219 28.628906 231.699219 C 28.628906 261.445312 52.742188 285.5625 82.492188 285.5625 C 112.242188 285.5625 136.359375 261.445312 136.359375 231.699219 C 136.359375 201.949219 112.242188 177.832031 82.492188 177.832031 Z M 82.492188 177.832031 " clip-rule="nonzero"/></clipPath></defs><g clip-path="url(#21498f3056)"><g clip-path="url(#8db8ed873b)"><path stroke-linecap="butt" transform="matrix(0.75, 0, 0, 0.75, 9.949093, 17.438925)" fill="none" stroke-linejoin="miter" d="M 71.81788 -0.00190023 C 32.156419 -0.00190023 0.000167071 32.154352 0.000167071 71.821021 C 0.000167071 111.48769 32.156419 143.638734 71.81788 143.638734 C 111.484549 143.638734 143.640802 111.48769 143.640802 71.821021 C 143.640802 32.154352 111.484549 -0.00190023 71.81788 -0.00190023 Z M 71.81788 -0.00190023 " stroke="#000000" stroke-width="24" stroke-opacity="1" stroke-miterlimit="4"/></g></g><path stroke-linecap="butt" transform="matrix(0.75, 0, 0, 0.75, 117.68093, 66.78817)" fill="none" stroke-linejoin="miter" d="M -0.0016561 3.50119 L 28.727512 3.50119 C 44.128555 3.50119 56.612931 15.985566 56.612931 31.386609 L 56.612931 34.126192 C 56.612931 40.798068 59.263973 47.193901 63.982723 51.912652 C 68.696265 56.626194 75.097307 59.277236 81.769183 59.277236 L 106.920226 59.277236 " stroke="#000000" stroke-width="7" stroke-opacity="1" stroke-miterlimit="4"/><path stroke-linecap="round" transform="matrix(0.75, 0, 0, 0.75, 117.68093, 66.78817)" fill-opacity="1" fill="#000000" fill-rule="nonzero" stroke-linejoin="round" d="M 108.670226 48.777235 L 122.670227 59.277236 L 108.670226 69.777236 Z M 108.670226 48.777235 " stroke="#000000" stroke-width="7" stroke-opacity="1" stroke-miterlimit="4"/><g clip-path="url(#a50e7f3145)"><g clip-path="url(#fb179fdad0)"><path stroke-linecap="butt" transform="matrix(0.75, 0, 0, 0.75, 212.307924, 57.380615)" fill="none" stroke-linejoin="miter" d="M 71.818606 -0.00227784 C 32.157145 -0.00227784 0.000892789 32.153974 0.000892789 71.820644 C 0.000892789 111.487313 32.157145 143.638357 71.818606 143.638357 C 111.485275 143.638357 143.641527 111.487313 143.641527 71.820644 C 143.641527 32.153974 111.485275 -0.00227784 71.818606 -0.00227784 Z M 71.818606 -0.00227784 " stroke="#000000" stroke-width="24" stroke-opacity="1" stroke-miterlimit="4"/></g></g><path stroke-linecap="butt" transform="matrix(0.75, 0, 0, 0.75, 275.05604, 111.459053)" fill="none" stroke-linejoin="miter" d="M 59.977367 3.502513 L 88.284661 3.502513 C 95.795078 3.502513 102.992995 6.48168 108.300287 11.788972 C 113.607579 17.101473 116.591954 24.29939 116.591954 31.804599 L 116.591954 197.429609 C 116.591954 214.549402 102.711745 228.429611 85.591952 228.429611 L 19.248198 228.429611 " stroke="#000000" stroke-width="7" stroke-opacity="1" stroke-miterlimit="4"/><path stroke-linecap="round" transform="matrix(0.75, 0, 0, 0.75, 275.05604, 111.459053)" fill-opacity="1" fill="#000000" fill-rule="nonzero" stroke-linejoin="round" d="M 17.498198 238.929612 L 3.498197 228.429611 L 17.498198 217.929611 Z M 17.498198 238.929612 " stroke="#000000" stroke-width="7" stroke-opacity="1" stroke-miterlimit="4"/><g clip-path="url(#fd70df698b)"><g clip-path="url(#105644bc93)"><path stroke-linecap="butt" transform="matrix(0.75, 0, 0, 0.75, 167.324202, 228.914985)" fill="none" stroke-linejoin="miter" d="M 71.817736 -0.00122996 C 32.156275 -0.00122996 0.0000229835 32.155022 0.0000229835 71.821691 C 0.0000229835 111.483152 32.156275 143.639404 71.817736 143.639404 C 111.484405 143.639404 143.640657 111.483152 143.640657 71.821691 C 143.640657 32.155022 111.484405 -0.00122996 71.817736 -0.00122996 Z M 71.817736 -0.00122996 " stroke="#000000" stroke-width="24" stroke-opacity="1" stroke-miterlimit="4"/></g></g><path stroke-linecap="butt" transform="matrix(0.75, 0, 0, 0.75, 79.868692, 282.939941)" fill="none" stroke-linejoin="miter" d="M 116.607377 3.501953 L 98.867792 3.501953 C 94.159458 3.501953 89.649041 5.366537 86.320916 8.694662 C 82.997999 12.022787 81.128208 16.533204 81.128208 21.241538 L 81.128208 50.845706 C 81.128208 67.965499 67.247998 81.845708 50.128206 81.845708 L 33.050079 81.845708 C 25.211537 81.845708 17.695912 78.731125 12.154245 73.189458 C 6.612578 67.652999 3.497994 60.137374 3.497994 52.298832 L 3.497994 22.751955 " stroke="#000000" stroke-width="7" stroke-opacity="1" stroke-miterlimit="4"/><path stroke-linecap="round" transform="matrix(0.75, 0, 0, 0.75, 79.868692, 282.939941)" fill-opacity="1" fill="#000000" fill-rule="nonzero" stroke-linejoin="round" d="M -7.002007 21.001954 L 3.497994 7.001954 L 13.997995 21.001954 Z M -7.002007 21.001954 " stroke="#000000" stroke-width="7" stroke-opacity="1" stroke-miterlimit="4"/><g clip-path="url(#ee88d4118d)"><g clip-path="url(#50f2c0e1d0)"><path stroke-linecap="butt" transform="matrix(0.75, 0, 0, 0.75, 28.627774, 177.833088)" fill="none" stroke-linejoin="miter" d="M 71.819223 -0.00140943 C 32.152554 -0.00140943 0.00151023 32.154843 0.00151023 71.821512 C 0.00151023 111.482973 32.152554 143.639225 71.819223 143.639225 C 111.485893 143.639225 143.642145 111.482973 143.642145 71.821512 C 143.642145 32.154843 111.485893 -0.00140943 71.819223 -0.00140943 Z M 71.819223 -0.00140943 " stroke="#000000" stroke-width="24" stroke-opacity="1" stroke-miterlimit="4"/></g></g><path stroke-linecap="butt" transform="matrix(0.75, 0, 0, 0.75, 61.190014, 125.170758)" fill="none" stroke-linejoin="miter" d="M 29.725817 79.886911 L 29.725817 64.813993 C 29.725817 57.569201 23.856024 51.699409 16.611232 51.699409 C 9.371649 51.699409 3.501856 45.829617 3.501856 38.590033 L 3.501856 19.25149 " stroke="#000000" stroke-width="7" stroke-opacity="1" stroke-miterlimit="4"/><path stroke-linecap="round" transform="matrix(0.75, 0, 0, 0.75, 61.190014, 125.170758)" fill-opacity="1" fill="#000000" fill-rule="nonzero" stroke-linejoin="round" d="M -6.998144 17.50149 L 3.501856 3.501489 L 14.001857 17.50149 Z M -6.998144 17.50149 " stroke="#000000" stroke-width="7" stroke-opacity="1" stroke-miterlimit="4"/></svg>