<svg xmlns="http://www.w3.org/2000/svg" xmlns:xlink="http://www.w3.org/1999/xlink" width="1080" zoomAndPan="magnify" viewBox="0 0 810 809.999993" height="1080" preserveAspectRatio="xMidYMid meet" version="1.2"><g id="a73511f921"><path style=" stroke:none;fill-rule:nonzero;fill:#000000;fill-opacity:1;" d="M 213.300781 791.101562 C 162.898438 745.199219 190.800781 672.300781 273.601562 629.101562 C 301.5 615.601562 322.199219 609.300781 358.199219 610.199219 C 380.699219 611.101562 405.898438 623.699219 405.898438 623.699219 C 405.898438 460.800781 405 153 405 1.800781 C 414 1.800781 420.300781 0.898438 432.898438 0.898438 C 432.898438 9.898438 432.898438 17.101562 432.898438 24.300781 C 432.898438 32.398438 432.898438 36.898438 433.800781 42.300781 C 442.800781 99 455.398438 121.5 518.398438 190.800781 C 598.5 279.898438 621.898438 333 621.898438 404.101562 C 621 470.699219 562.5 612.898438 549.898438 607.5 C 567.898438 557.101562 593.101562 503.101562 599.398438 458.101562 C 607.5 403.199219 585 325.800781 549 285.300781 C 520.199219 251.101562 451.800781 221.398438 432.898438 221.398438 C 432.898438 221.398438 432 549 432 673.199219 C 432 693.898438 413.101562 730.800781 402.300781 743.398438 C 352.800781 802.800781 256.5 829.800781 213.300781 791.101562 Z M 213.300781 791.101562 "/></g></svg>