<svg xmlns="http://www.w3.org/2000/svg" xmlns:xlink="http://www.w3.org/1999/xlink" width="1080" zoomAndPan="magnify" viewBox="0 0 810 809.999993" height="1080" preserveAspectRatio="xMidYMid meet" version="1.2"><defs/><g id="c96f6a10f1"><path style="fill:none;stroke-width:18;stroke-linecap:butt;stroke-linejoin:miter;stroke:#000000;stroke-opacity:1;stroke-miterlimit:4;" d="M 0.00146744 9.000579 L 569.053594 9.000579 " transform="matrix(0.749938,0,0,0.749938,191.604368,219.031372)"/><path style="fill:none;stroke-width:18;stroke-linecap:butt;stroke-linejoin:miter;stroke:#000000;stroke-opacity:1;stroke-miterlimit:4;" d="M -0.00110452 9.001959 L 198.73328 9.001959 " transform="matrix(0,0.75,-0.75,0,205.204594,225.785985)"/><path style="fill:none;stroke-width:18;stroke-linecap:butt;stroke-linejoin:miter;stroke:#000000;stroke-opacity:1;stroke-miterlimit:4;" d="M 0.00125236 9.001323 L 198.730429 9.001323 " transform="matrix(0,0.75,-0.75,0,618.286148,224.979529)"/><path style=" stroke:none;fill-rule:nonzero;fill:#000000;fill-opacity:1;" d="M 385.308594 418.976562 L 385.308594 580.902344 L 396.097656 580.902344 L 396.097656 536.425781 L 397.824219 537.722656 L 407.316406 546.789062 C 423.046875 561.875 435.382812 576.070312 444.316406 589.375 C 453.253906 602.679688 458.898438 615.253906 461.253906 627.105469 C 463.160156 637.53125 462.800781 649.386719 460.175781 662.671875 C 457.550781 675.960938 452.875 689.003906 446.152344 701.804688 C 444.910156 704.25 444.15625 705.941406 443.886719 706.878906 C 443.617188 707.8125 443.507812 708.859375 443.5625 710.007812 C 443.804688 712.824219 444.722656 715.183594 446.3125 717.082031 C 447.902344 718.976562 450.007812 720.363281 452.625 721.238281 C 455.273438 722.089844 457.847656 722.214844 460.335938 721.613281 C 462.828125 721.011719 464.859375 719.734375 466.429688 717.78125 C 468.308594 715.46875 470.703125 710.59375 473.605469 703.15625 C 476.507812 695.714844 479.007812 687.925781 481.101562 679.785156 C 483.90625 668.511719 485.523438 657.699219 485.957031 647.34375 C 486.386719 636.988281 485.632812 627.363281 483.691406 618.46875 C 482.988281 615.085938 481.910156 611.269531 480.453125 607.023438 C 479 602.777344 477.488281 598.964844 475.925781 595.582031 L 473.335938 590.402344 L 475.492188 586.082031 C 481.308594 571.921875 484.023438 557.925781 483.636719 544.089844 C 483.25 530.253906 479.816406 516.039062 473.335938 501.449219 L 471.179688 496.699219 L 472.472656 494.109375 C 473.570312 491.671875 474.613281 488.882812 475.601562 485.742188 C 476.589844 482.601562 477.417969 479.488281 478.082031 476.40625 C 478.496094 474.253906 478.746094 472.292969 478.835938 470.523438 C 478.925781 468.75 478.960938 465.816406 478.945312 461.722656 C 478.960938 457.136719 478.820312 453.140625 478.511719 449.742188 C 478.207031 446.339844 477.632812 442.5625 476.789062 438.40625 C 473.765625 424.949219 467.726562 409.980469 458.664062 393.5 C 456.390625 389.578125 453.710938 385.113281 450.628906 380.113281 C 447.542969 375.113281 443.464844 368.492188 438.382812 360.25 L 425.871094 340.820312 C 416.027344 325.265625 408.746094 311.25 404.027344 298.773438 C 399.308594 286.296875 396.664062 274.113281 396.097656 262.230469 L 396.097656 257.050781 L 385.308594 257.050781 Z M 403 356.796875 C 414.140625 370.683594 423.253906 383.0625 430.347656 393.929688 C 437.441406 404.796875 442.996094 415.015625 447.015625 424.589844 C 450.296875 432.351562 452.6875 440.140625 454.1875 447.960938 C 455.6875 455.777344 456.03125 462.378906 455.210938 467.769531 L 455.210938 469.496094 L 447.445312 458.699219 C 445.199219 455.75 442.789062 452.476562 440.21875 448.878906 C 437.648438 445.277344 435.453125 442.21875 433.636719 439.703125 C 422.363281 424.074219 413.949219 410.636719 408.394531 399.382812 C 402.839844 388.128906 399.171875 376.957031 397.390625 365.863281 C 396.925781 362.679688 396.566406 359.117188 396.3125 355.175781 C 396.0625 351.234375 396.132812 349.183594 396.527344 349.023438 C 396.582031 349.292969 397.230469 350.15625 398.472656 351.613281 C 399.710938 353.070312 401.222656 354.796875 403 356.796875 Z M 422.417969 469.929688 C 426.609375 474.730469 430.09375 478.941406 432.882812 482.558594 C 435.667969 486.175781 438.511719 490.167969 441.40625 494.539062 C 449.164062 506.171875 454.464844 517.238281 457.316406 527.734375 C 460.164062 538.234375 460.617188 548.328125 458.664062 558.015625 C 458.449219 559.335938 458.234375 560.472656 458.015625 561.414062 C 457.800781 562.359375 457.585938 562.953125 457.371094 563.195312 C 457.296875 563.628906 456.148438 562.332031 453.917969 559.3125 C 452.972656 557.917969 451.410156 555.738281 449.226562 552.78125 C 447.039062 549.820312 444.722656 546.671875 442.265625 543.335938 C 432.199219 529.992188 424.71875 519.648438 419.828125 512.296875 C 414.941406 504.949219 410.914062 497.734375 407.746094 490.65625 C 404.054688 483 401.195312 475.316406 399.171875 467.605469 C 397.148438 459.898438 396.125 452.753906 396.097656 446.179688 L 396.097656 442.292969 L 406.023438 452.65625 C 408.945312 455.589844 411.945312 458.683594 415.03125 461.941406 C 418.113281 465.195312 420.574219 467.859375 422.417969 469.929688 Z M 422.417969 469.929688 "/><path style=" stroke:none;fill-rule:nonzero;fill:#000000;fill-opacity:1;" d="M 386.390625 252.730469 L 391.78125 252.730469 C 394.171875 252.730469 396.097656 254.65625 396.097656 257.050781 L 396.097656 713.921875 C 396.097656 716.3125 394.171875 718.238281 391.78125 718.238281 L 386.390625 718.238281 C 383.996094 718.238281 382.074219 716.3125 382.074219 713.921875 L 382.074219 257.050781 C 382.074219 254.65625 383.996094 252.730469 386.390625 252.730469 Z M 386.390625 252.730469 "/><path style=" stroke:none;fill-rule:nonzero;fill:#000000;fill-opacity:1;" d="M 331.351562 676.765625 C 315.753906 679.132812 301.640625 684.765625 289.011719 693.660156 C 276.382812 702.558594 266.90625 713.480469 260.585938 726.425781 C 258.230469 731.253906 256.578125 735.734375 255.625 739.863281 C 254.671875 743.992188 254.3125 748.582031 254.546875 753.628906 C 254.527344 756.523438 254.5625 758.71875 254.652344 760.210938 C 254.742188 761.707031 254.996094 763.253906 255.410156 764.855469 C 258.332031 775.503906 264.136719 783.890625 272.832031 790.007812 C 281.523438 796.125 292.398438 799.542969 305.460938 800.261719 C 324.449219 800.488281 342.140625 795.070312 358.535156 784.015625 C 374.933594 772.960938 386.152344 758.800781 392.191406 741.539062 C 393.246094 738.226562 393.945312 735.242188 394.296875 732.578125 C 394.648438 729.914062 394.808594 726.710938 394.78125 722.96875 C 394.800781 720.082031 394.761719 717.871094 394.675781 716.332031 C 394.585938 714.792969 394.332031 713.121094 393.917969 711.3125 C 392.804688 707.351562 391.148438 703.503906 388.957031 699.761719 C 386.761719 696.019531 384.246094 692.816406 381.40625 690.152344 C 374.429688 684.035156 365.511719 679.863281 354.652344 677.628906 C 351.578125 677 347.695312 676.640625 343.003906 676.550781 C 338.308594 676.460938 334.425781 676.535156 331.351562 676.765625 Z M 331.351562 676.765625 "/><g style="fill:#000000;fill-opacity:1;"><g transform="translate(370.371928, 164.296694)"><path style="stroke:none" d="M 50.03125 1.71875 C 38.726562 1.71875 29.828125 -0.554688 23.328125 -5.109375 C 16.835938 -9.671875 12.5 -16.046875 10.3125 -24.234375 L 28.328125 -32.34375 L 30.21875 -31.9375 C 33.320312 -22.820312 39.867188 -18.265625 49.859375 -18.265625 C 57.671875 -18.265625 63.609375 -21.5 67.671875 -27.96875 C 71.734375 -34.4375 73.765625 -44.132812 73.765625 -57.0625 L 72.140625 -57.640625 C 69.410156 -52.453125 65.847656 -48.519531 61.453125 -45.84375 C 57.054688 -43.175781 51.363281 -41.84375 44.375 -41.84375 C 37.226562 -41.84375 30.9375 -43.425781 25.5 -46.59375 C 20.070312 -49.757812 15.859375 -54.273438 12.859375 -60.140625 C 9.859375 -66.003906 8.359375 -72.894531 8.359375 -80.8125 C 8.359375 -89.050781 10.101562 -96.226562 13.59375 -102.34375 C 17.082031 -108.457031 22.046875 -113.164062 28.484375 -116.46875 C 34.929688 -119.769531 42.441406 -121.421875 51.015625 -121.421875 C 65.804688 -121.421875 77.363281 -116.738281 85.6875 -107.375 C 94.007812 -98.019531 98.171875 -82.941406 98.171875 -62.140625 C 98.171875 -47.835938 96.242188 -35.9375 92.390625 -26.4375 C 88.546875 -16.945312 83.035156 -9.878906 75.859375 -5.234375 C 68.679688 -0.597656 60.070312 1.71875 50.03125 1.71875 Z M 51.671875 -61.25 C 57.773438 -61.25 62.613281 -63.046875 66.1875 -66.640625 C 69.769531 -70.242188 71.5625 -75.101562 71.5625 -81.21875 C 71.5625 -87.382812 69.800781 -92.269531 66.28125 -95.875 C 62.757812 -99.476562 57.890625 -101.28125 51.671875 -101.28125 C 45.554688 -101.28125 40.773438 -99.53125 37.328125 -96.03125 C 33.890625 -92.539062 32.171875 -87.601562 32.171875 -81.21875 C 32.171875 -74.882812 33.890625 -69.972656 37.328125 -66.484375 C 40.773438 -62.992188 45.554688 -61.25 51.671875 -61.25 Z M 51.671875 -61.25 "/></g></g></g></svg>