<svg xmlns="http://www.w3.org/2000/svg" xmlns:xlink="http://www.w3.org/1999/xlink" width="1080" zoomAndPan="magnify" viewBox="0 0 810 809.999993" height="1080" preserveAspectRatio="xMidYMid meet" version="1.2"><defs><clipPath id="b9f42b9da7"><path d="M 286.445312 5 L 523.445312 5 L 523.445312 805 L 286.445312 805 Z M 286.445312 5 "/></clipPath></defs><g id="e820099962"><g clip-rule="nonzero" clip-path="url(#b9f42b9da7)"><path style=" stroke:none;fill-rule:nonzero;fill:#000000;fill-opacity:1;" d="M 365.695312 804.371094 C 388.21875 804.664062 412.605469 799.003906 435.65625 788.128906 C 486.363281 764.1875 522.039062 719.335938 523.308594 677.933594 L 523.40625 677.933594 L 523.40625 11.109375 C 523.40625 11.109375 523.964844 7.882812 520.761719 6.523438 C 517.945312 5.332031 506.902344 5.308594 504.40625 6.527344 C 501.75 7.824219 502.09375 11.109375 502.09375 11.109375 L 502.09375 628.335938 C 473.589844 603.722656 422.453125 602.457031 374.226562 625.167969 C 311.035156 654.972656 273.558594 715.621094 290.527344 760.625 C 300.671875 787.519531 328.800781 803.890625 365.695312 804.371094 Z M 365.695312 804.371094 "/></g></g></svg>