<svg xmlns="http://www.w3.org/2000/svg" xmlns:xlink="http://www.w3.org/1999/xlink" width="1080" zoomAndPan="magnify" viewBox="0 0 810 809.999993" height="1080" preserveAspectRatio="xMidYMid meet" version="1.2"><defs><clipPath id="85c8113388"><path d="M 257 260 L 553 260 L 553 809.9375 L 257 809.9375 Z M 257 260 "/></clipPath></defs><g id="bad092b759"><g clip-rule="nonzero" clip-path="url(#85c8113388)"><path style=" stroke:none;fill-rule:nonzero;fill:#000000;fill-opacity:1;" d="M 274.683594 797.09375 C 240.429688 765.898438 259.390625 716.351562 315.664062 686.992188 C 334.628906 677.816406 348.695312 673.535156 373.164062 674.148438 C 388.453125 674.757812 405.582031 683.324219 405.582031 683.324219 C 405.582031 572.609375 404.96875 363.421875 404.96875 260.660156 C 411.085938 260.660156 415.367188 260.050781 423.929688 260.050781 C 423.929688 266.167969 423.929688 271.058594 423.929688 275.953125 C 423.929688 281.457031 423.929688 284.515625 424.542969 288.1875 C 430.660156 326.722656 439.222656 342.011719 482.039062 389.109375 C 536.476562 449.667969 552.378906 485.753906 552.378906 534.078125 C 551.769531 579.339844 512.011719 675.984375 503.445312 672.3125 C 515.679688 638.058594 532.808594 601.359375 537.089844 570.777344 C 542.59375 533.464844 527.300781 480.859375 502.835938 453.335938 C 483.261719 430.09375 436.777344 409.90625 423.929688 409.90625 C 423.929688 409.90625 423.320312 632.554688 423.320312 716.964844 C 423.320312 731.03125 410.472656 756.109375 403.132812 764.675781 C 369.492188 805.042969 304.042969 823.394531 274.683594 797.09375 Z M 274.683594 797.09375 "/></g><path style="fill:none;stroke-width:18;stroke-linecap:butt;stroke-linejoin:miter;stroke:#000000;stroke-opacity:1;stroke-miterlimit:4;" d="M 0.00146744 9.000579 L 569.053594 9.000579 " transform="matrix(0.749938,0,0,0.749938,191.604368,219.031372)"/><path style="fill:none;stroke-width:18;stroke-linecap:butt;stroke-linejoin:miter;stroke:#000000;stroke-opacity:1;stroke-miterlimit:4;" d="M -0.00110452 9.001959 L 198.73328 9.001959 " transform="matrix(0,0.75,-0.75,0,205.204594,225.785985)"/><path style="fill:none;stroke-width:18;stroke-linecap:butt;stroke-linejoin:miter;stroke:#000000;stroke-opacity:1;stroke-miterlimit:4;" d="M 0.00125236 9.001323 L 198.730429 9.001323 " transform="matrix(0,0.75,-0.75,0,618.286148,224.979529)"/><g style="fill:#000000;fill-opacity:1;"><g transform="translate(370.371928, 164.296694)"><path style="stroke:none" d="M 49.859375 1.71875 C 37.910156 1.71875 28.425781 -0.789062 21.40625 -5.8125 C 14.394531 -10.832031 9.828125 -17.847656 7.703125 -26.859375 L 25.625 -34.796875 L 27.515625 -34.46875 C 29.253906 -29.175781 31.859375 -25.191406 35.328125 -22.515625 C 38.796875 -19.835938 43.5625 -18.5 49.625 -18.5 C 55.84375 -18.5 60.644531 -20.273438 64.03125 -23.828125 C 67.414062 -27.378906 69.109375 -32.675781 69.109375 -39.71875 C 69.109375 -46.695312 67.425781 -51.988281 64.0625 -55.59375 C 60.707031 -59.195312 56.140625 -61 50.359375 -61 C 45.929688 -61 42.21875 -60.039062 39.21875 -58.125 C 36.21875 -56.21875 33.707031 -53.382812 31.6875 -49.625 L 12.125 -51.015625 L 14.578125 -119.703125 L 85.8125 -119.703125 L 85.8125 -99.8125 L 34.46875 -99.8125 L 33.328125 -69.265625 L 35.046875 -68.9375 C 37.828125 -72.59375 41.15625 -75.363281 45.03125 -77.25 C 48.90625 -79.132812 53.570312 -80.078125 59.03125 -80.078125 C 65.851562 -80.078125 71.816406 -78.5625 76.921875 -75.53125 C 82.023438 -72.5 85.96875 -67.992188 88.75 -62.015625 C 91.539062 -56.046875 92.9375 -48.75 92.9375 -40.125 C 92.9375 -31.332031 91.253906 -23.8125 87.890625 -17.5625 C 84.535156 -11.3125 79.632812 -6.535156 73.1875 -3.234375 C 66.75 0.0664062 58.972656 1.71875 49.859375 1.71875 Z M 49.859375 1.71875 "/></g></g></g></svg>