<svg xmlns="http://www.w3.org/2000/svg" xmlns:xlink="http://www.w3.org/1999/xlink" width="1080" zoomAndPan="magnify" viewBox="0 0 810 809.999993" height="1080" preserveAspectRatio="xMidYMid meet" version="1.2"><defs><clipPath id="1fbd604a90"><path d="M 257 260 L 553 260 L 553 809.9375 L 257 809.9375 Z M 257 260 "/></clipPath></defs><g id="8738528ffd"><g clip-rule="nonzero" clip-path="url(#1fbd604a90)"><path style=" stroke:none;fill-rule:nonzero;fill:#000000;fill-opacity:1;" d="M 274.683594 797.09375 C 240.429688 765.898438 259.390625 716.351562 315.664062 686.992188 C 334.628906 677.816406 348.695312 673.535156 373.164062 674.148438 C 388.453125 674.757812 405.582031 683.324219 405.582031 683.324219 C 405.582031 572.609375 404.96875 363.421875 404.96875 260.660156 C 411.085938 260.660156 415.367188 260.050781 423.929688 260.050781 C 423.929688 266.167969 423.929688 271.058594 423.929688 275.953125 C 423.929688 281.457031 423.929688 284.515625 424.542969 288.1875 C 430.660156 326.722656 439.222656 342.011719 482.039062 389.109375 C 536.476562 449.667969 552.378906 485.753906 552.378906 534.078125 C 551.769531 579.339844 512.011719 675.984375 503.445312 672.3125 C 515.679688 638.058594 532.808594 601.359375 537.089844 570.777344 C 542.59375 533.464844 527.300781 480.859375 502.835938 453.335938 C 483.261719 430.09375 436.777344 409.90625 423.929688 409.90625 C 423.929688 409.90625 423.320312 632.554688 423.320312 716.964844 C 423.320312 731.03125 410.472656 756.109375 403.132812 764.675781 C 369.492188 805.042969 304.042969 823.394531 274.683594 797.09375 Z M 274.683594 797.09375 "/></g><path style="fill:none;stroke-width:18;stroke-linecap:butt;stroke-linejoin:miter;stroke:#000000;stroke-opacity:1;stroke-miterlimit:4;" d="M 0.00146744 9.000579 L 569.053594 9.000579 " transform="matrix(0.749938,0,0,0.749938,191.604368,219.031372)"/><path style="fill:none;stroke-width:18;stroke-linecap:butt;stroke-linejoin:miter;stroke:#000000;stroke-opacity:1;stroke-miterlimit:4;" d="M -0.00110452 9.001959 L 198.73328 9.001959 " transform="matrix(0,0.75,-0.75,0,205.204594,225.785985)"/><path style="fill:none;stroke-width:18;stroke-linecap:butt;stroke-linejoin:miter;stroke:#000000;stroke-opacity:1;stroke-miterlimit:4;" d="M 0.00125236 9.001323 L 198.730429 9.001323 " transform="matrix(0,0.75,-0.75,0,618.286148,224.979529)"/><g style="fill:#000000;fill-opacity:1;"><g transform="translate(370.371928, 164.296694)"><path style="stroke:none" d="M 57.234375 1.71875 C 48.222656 1.71875 40.179688 -0.351562 33.109375 -4.5 C 26.046875 -8.644531 20.441406 -15.234375 16.296875 -24.265625 C 12.148438 -33.304688 10.078125 -44.785156 10.078125 -58.703125 C 10.078125 -72.898438 12.257812 -84.675781 16.625 -94.03125 C 20.988281 -103.394531 26.953125 -110.300781 34.515625 -114.75 C 42.078125 -119.195312 50.742188 -121.421875 60.515625 -121.421875 C 68.640625 -121.421875 75.632812 -120.25 81.5 -117.90625 C 87.375 -115.5625 91.945312 -112.09375 95.21875 -107.5 L 83.59375 -92.609375 L 81.546875 -92.609375 C 76.578125 -98.554688 69.566406 -101.53125 60.515625 -101.53125 C 43.484375 -101.53125 34.773438 -89.054688 34.390625 -64.109375 L 36.109375 -63.53125 C 38.890625 -68.664062 42.554688 -72.582031 47.109375 -75.28125 C 51.671875 -77.988281 57.421875 -79.34375 64.359375 -79.34375 C 71.773438 -79.34375 78.1875 -77.769531 83.59375 -74.625 C 89 -71.488281 93.148438 -67 96.046875 -61.15625 C 98.941406 -55.320312 100.390625 -48.390625 100.390625 -40.359375 C 100.390625 -31.628906 98.65625 -24.097656 95.1875 -17.765625 C 91.71875 -11.429688 86.734375 -6.597656 80.234375 -3.265625 C 73.742188 0.0546875 66.078125 1.71875 57.234375 1.71875 Z M 56.734375 -18.5 C 62.910156 -18.5 67.742188 -20.3125 71.234375 -23.9375 C 74.722656 -27.570312 76.46875 -32.664062 76.46875 -39.21875 C 76.46875 -45.769531 74.722656 -50.859375 71.234375 -54.484375 C 67.742188 -58.117188 62.910156 -59.9375 56.734375 -59.9375 C 52.703125 -59.9375 49.171875 -59.085938 46.140625 -57.390625 C 43.109375 -55.703125 40.773438 -53.300781 39.140625 -50.1875 C 37.503906 -47.082031 36.6875 -43.425781 36.6875 -39.21875 C 36.6875 -32.832031 38.472656 -27.78125 42.046875 -24.0625 C 45.617188 -20.351562 50.515625 -18.5 56.734375 -18.5 Z M 56.734375 -18.5 "/></g></g></g></svg>