<svg xmlns="http://www.w3.org/2000/svg" xmlns:xlink="http://www.w3.org/1999/xlink" width="1080" zoomAndPan="magnify" viewBox="0 0 810 809.999993" height="1080" preserveAspectRatio="xMidYMid meet" version="1.2"><defs><clipPath id="787f23a688"><path d="M 179.210938 0 L 630 0 L 630 810 L 179.210938 810 Z M 179.210938 0 "/></clipPath></defs><g id="1d80ffaae8"><g clip-rule="nonzero" clip-path="url(#787f23a688)"><path style=" stroke:none;fill-rule:evenodd;fill:#000000;fill-opacity:1;" d="M 421.496094 676.886719 C 421.496094 713.363281 399.6875 746.582031 368.183594 770.898438 C 364.414062 773.890625 360.527344 776.730469 356.53125 779.410156 C 352.53125 782.09375 348.433594 784.609375 344.234375 786.964844 C 340.03125 789.316406 335.746094 791.496094 331.367188 793.503906 C 326.992188 795.515625 322.542969 797.34375 318.023438 798.996094 C 313.5 800.644531 308.917969 802.113281 304.277344 803.398438 C 299.636719 804.679688 294.953125 805.773438 290.226562 806.683594 C 285.5 807.589844 280.742188 808.304688 275.957031 808.832031 C 271.171875 809.355469 266.371094 809.6875 261.558594 809.828125 C 256.335938 809.925781 251.144531 809.582031 245.980469 808.789062 C 240.816406 807.996094 235.757812 806.773438 230.804688 805.113281 C 225.851562 803.453125 221.074219 801.382812 216.476562 798.902344 C 211.878906 796.425781 207.523438 793.570312 203.414062 790.34375 C 201.496094 788.835938 199.667969 787.21875 197.9375 785.5 C 196.203125 783.777344 194.574219 781.960938 193.050781 780.054688 C 191.527344 778.144531 190.121094 776.152344 188.828125 774.082031 C 187.535156 772.011719 186.363281 769.871094 185.316406 767.664062 C 184.269531 765.457031 183.355469 763.199219 182.570312 760.882812 C 181.785156 758.570312 181.136719 756.222656 180.621094 753.832031 C 180.109375 751.445312 179.734375 749.035156 179.496094 746.605469 C 179.261719 744.175781 179.167969 741.738281 179.210938 739.296875 C 179.210938 706.074219 201.828125 672.828125 232.523438 648.53125 C 263.21875 623.398438 301.992188 607.195312 334.339844 607.195312 C 362.625 607.195312 386.851562 611.253906 401.390625 625.015625 L 401.390625 0.171875 L 421.585938 0.171875 C 423.199219 29.34375 428.046875 69.871094 462.789062 101.480469 C 499.304688 132.402344 532.964844 166.171875 563.773438 202.785156 C 596.886719 244.121094 620.304688 295.980469 620.304688 348.65625 C 620.179688 375.914062 616.410156 402.660156 608.996094 428.890625 C 612.484375 435.839844 615.550781 442.972656 618.191406 450.289062 C 620.835938 457.605469 623.035156 465.050781 624.792969 472.628906 C 626.550781 480.203125 627.855469 487.859375 628.707031 495.589844 C 629.558594 503.320312 629.949219 511.074219 629.878906 518.851562 C 629.882812 531.386719 629.023438 543.859375 627.304688 556.273438 C 625.582031 568.6875 623.015625 580.925781 619.601562 592.984375 C 616.183594 605.042969 611.957031 616.808594 606.914062 628.28125 C 601.871094 639.753906 596.058594 650.824219 589.484375 661.492188 L 576.582031 661.492188 C 593.539062 635.558594 613.738281 573.976562 612.136719 535.0625 C 610.464844 492.117188 607.285156 467 579.820312 432.953125 C 548.316406 394.058594 466.71875 353.53125 421.496094 321.9375 Z M 599.199219 356.769531 C 597.589844 313.816406 576.582031 280.597656 549.125 246.550781 C 517.621094 207.652344 466.730469 175.242188 421.496094 149.300781 C 423.105469 207.652344 461.070312 266.808594 495.773438 298.417969 C 525.898438 323.304688 553.363281 350.851562 578.160156 381.050781 C 585.167969 389.851562 591.628906 399.03125 597.546875 408.597656 C 599.257812 391.359375 599.808594 374.082031 599.199219 356.769531 Z M 599.199219 356.769531 "/></g></g></svg>