<svg xmlns="http://www.w3.org/2000/svg" xmlns:xlink="http://www.w3.org/1999/xlink" width="1080" zoomAndPan="magnify" viewBox="0 0 810 809.999993" height="1080" preserveAspectRatio="xMidYMid meet" version="1.2"><g id="4304ba5cdd"><path style=" stroke:none;fill-rule:nonzero;fill:#000000;fill-opacity:1;" d="M 426.636719 251.394531 L 426.636719 482.714844 L 442.070312 482.714844 L 442.070312 419.179688 L 444.539062 421.03125 L 458.121094 433.984375 C 480.625 455.535156 498.269531 475.8125 511.054688 494.820312 C 523.835938 513.828125 531.914062 531.792969 535.28125 548.71875 C 538.007812 563.613281 537.496094 580.550781 533.738281 599.53125 C 529.984375 618.511719 523.296875 637.148438 513.675781 655.433594 C 511.902344 658.929688 510.820312 661.347656 510.4375 662.683594 C 510.050781 664.019531 509.894531 665.507812 509.972656 667.15625 C 510.320312 671.175781 511.632812 674.542969 513.910156 677.257812 C 516.183594 679.96875 519.195312 681.945312 522.9375 683.195312 C 526.730469 684.414062 530.40625 684.59375 533.96875 683.734375 C 537.53125 682.871094 540.4375 681.046875 542.691406 678.257812 C 545.378906 674.957031 548.796875 667.988281 552.953125 657.363281 C 557.105469 646.734375 560.679688 635.605469 563.679688 623.976562 C 567.691406 607.871094 570.003906 592.425781 570.621094 577.632812 C 571.238281 562.839844 570.160156 549.089844 567.382812 536.382812 C 566.378906 531.550781 564.835938 526.101562 562.753906 520.035156 C 560.667969 513.96875 558.507812 508.519531 556.269531 503.6875 L 552.566406 496.285156 L 555.652344 490.117188 C 563.972656 469.890625 567.855469 449.894531 567.304688 430.128906 C 566.75 410.363281 561.839844 390.058594 552.566406 369.214844 L 549.480469 362.429688 L 551.332031 358.726562 C 552.902344 355.242188 554.390625 351.261719 555.808594 346.773438 C 557.222656 342.289062 558.40625 337.84375 559.355469 333.4375 C 559.949219 330.363281 560.308594 327.5625 560.4375 325.03125 C 560.566406 322.5 560.617188 318.308594 560.589844 312.460938 C 560.617188 305.910156 560.410156 300.203125 559.972656 295.34375 C 559.535156 290.488281 558.714844 285.089844 557.503906 279.152344 C 553.183594 259.925781 544.542969 238.542969 531.578125 215 C 528.324219 209.394531 524.492188 203.023438 520.082031 195.875 C 515.671875 188.730469 509.832031 179.273438 502.566406 167.5 L 484.664062 139.742188 C 470.582031 117.523438 460.164062 97.5 453.414062 79.675781 C 446.660156 61.851562 442.882812 44.453125 442.070312 27.476562 L 442.070312 20.074219 L 426.636719 20.074219 Z M 451.945312 162.566406 C 467.882812 182.410156 480.921875 200.089844 491.066406 215.617188 C 501.214844 231.140625 509.164062 245.738281 514.910156 259.414062 C 519.605469 270.503906 523.027344 281.632812 525.175781 292.800781 C 527.320312 303.96875 527.808594 313.402344 526.640625 321.097656 L 526.640625 323.566406 L 515.527344 308.144531 C 512.3125 303.929688 508.867188 299.25 505.1875 294.109375 C 501.511719 288.96875 498.375 284.601562 495.773438 281.003906 C 479.648438 258.679688 467.609375 239.480469 459.664062 223.402344 C 451.714844 207.328125 446.46875 191.367188 443.921875 175.519531 C 443.253906 170.972656 442.738281 165.882812 442.378906 160.253906 C 442.019531 154.625 442.121094 151.695312 442.6875 151.464844 C 442.765625 151.847656 443.691406 153.082031 445.464844 155.164062 C 447.242188 157.246094 449.402344 159.714844 451.945312 162.566406 Z M 479.726562 324.183594 C 485.71875 331.046875 490.707031 337.058594 494.695312 342.226562 C 498.683594 347.390625 502.746094 353.097656 506.886719 359.34375 C 517.984375 375.960938 525.574219 391.765625 529.648438 406.765625 C 533.726562 421.761719 534.371094 436.179688 531.578125 450.023438 C 531.269531 451.910156 530.960938 453.53125 530.652344 454.878906 C 530.34375 456.226562 530.035156 457.078125 529.726562 457.425781 C 529.625 458.039062 527.976562 456.191406 524.789062 451.871094 C 523.4375 449.878906 521.199219 446.769531 518.074219 442.542969 C 514.949219 438.3125 511.632812 433.816406 508.121094 429.046875 C 493.71875 409.988281 483.019531 395.210938 476.023438 384.710938 C 469.027344 374.210938 463.265625 363.90625 458.738281 353.792969 C 453.453125 342.855469 449.363281 331.878906 446.46875 320.867188 C 443.574219 309.855469 442.109375 299.648438 442.070312 290.257812 L 442.070312 284.703125 L 456.269531 299.507812 C 460.449219 303.699219 464.742188 308.117188 469.15625 312.769531 C 473.566406 317.421875 477.089844 321.226562 479.726562 324.183594 Z M 479.726562 324.183594 "/><path style=" stroke:none;fill-rule:nonzero;fill:#000000;fill-opacity:1;" d="M 428.179688 13.902344 L 435.898438 13.902344 C 439.316406 13.902344 442.070312 16.65625 442.070312 20.074219 L 442.070312 672.742188 C 442.070312 676.160156 439.316406 678.914062 435.898438 678.914062 L 428.179688 678.914062 C 424.761719 678.914062 422.007812 676.160156 422.007812 672.742188 L 422.007812 20.074219 C 422.007812 16.65625 424.761719 13.902344 428.179688 13.902344 Z M 428.179688 13.902344 "/><path style=" stroke:none;fill-rule:nonzero;fill:#000000;fill-opacity:1;" d="M 349.445312 619.667969 C 327.132812 623.046875 306.941406 631.089844 288.875 643.800781 C 270.804688 656.511719 257.25 672.113281 248.210938 690.605469 C 244.839844 697.507812 242.472656 703.90625 241.109375 709.804688 C 239.746094 715.703125 239.234375 722.257812 239.566406 729.46875 C 239.542969 733.605469 239.59375 736.742188 239.722656 738.875 C 239.851562 741.007812 240.210938 743.21875 240.800781 745.503906 C 244.980469 760.722656 253.289062 772.699219 265.726562 781.4375 C 278.160156 790.175781 293.722656 795.058594 312.40625 796.085938 C 339.570312 796.410156 364.878906 788.671875 388.335938 772.878906 C 411.792969 757.082031 427.84375 736.855469 436.484375 712.195312 C 437.988281 707.464844 438.992188 703.199219 439.492188 699.394531 C 439.996094 695.589844 440.226562 691.015625 440.1875 685.671875 C 440.214844 681.542969 440.164062 678.382812 440.035156 676.1875 C 439.90625 673.988281 439.546875 671.597656 438.953125 669.015625 C 437.359375 663.359375 434.992188 657.859375 431.855469 652.515625 C 428.714844 647.167969 425.117188 642.59375 421.050781 638.789062 C 411.074219 630.050781 398.316406 624.085938 382.78125 620.898438 C 378.382812 620 372.824219 619.488281 366.113281 619.359375 C 359.398438 619.230469 353.84375 619.332031 349.445312 619.667969 Z M 349.445312 619.667969 "/></g></svg>