<svg xmlns="http://www.w3.org/2000/svg" xmlns:xlink="http://www.w3.org/1999/xlink" width="1080" zoomAndPan="magnify" viewBox="0 0 810 809.999993" height="1080" preserveAspectRatio="xMidYMid meet" version="1.2"><defs><clipPath id="50ec5d2315"><path d="M 257 260 L 553 260 L 553 809.9375 L 257 809.9375 Z M 257 260 "/></clipPath></defs><g id="733da7c90f"><g clip-rule="nonzero" clip-path="url(#50ec5d2315)"><path style=" stroke:none;fill-rule:nonzero;fill:#000000;fill-opacity:1;" d="M 274.683594 797.09375 C 240.429688 765.898438 259.390625 716.351562 315.664062 686.992188 C 334.628906 677.816406 348.695312 673.535156 373.164062 674.148438 C 388.453125 674.757812 405.582031 683.324219 405.582031 683.324219 C 405.582031 572.609375 404.96875 363.421875 404.96875 260.660156 C 411.085938 260.660156 415.367188 260.050781 423.929688 260.050781 C 423.929688 266.167969 423.929688 271.058594 423.929688 275.953125 C 423.929688 281.457031 423.929688 284.515625 424.542969 288.1875 C 430.660156 326.722656 439.222656 342.011719 482.039062 389.109375 C 536.476562 449.667969 552.378906 485.753906 552.378906 534.078125 C 551.769531 579.339844 512.011719 675.984375 503.445312 672.3125 C 515.679688 638.058594 532.808594 601.359375 537.089844 570.777344 C 542.59375 533.464844 527.300781 480.859375 502.835938 453.335938 C 483.261719 430.09375 436.777344 409.90625 423.929688 409.90625 C 423.929688 409.90625 423.320312 632.554688 423.320312 716.964844 C 423.320312 731.03125 410.472656 756.109375 403.132812 764.675781 C 369.492188 805.042969 304.042969 823.394531 274.683594 797.09375 Z M 274.683594 797.09375 "/></g><path style="fill:none;stroke-width:18;stroke-linecap:butt;stroke-linejoin:miter;stroke:#000000;stroke-opacity:1;stroke-miterlimit:4;" d="M 0.00146744 9.000579 L 569.053594 9.000579 " transform="matrix(0.749938,0,0,0.749938,191.604368,219.031372)"/><path style="fill:none;stroke-width:18;stroke-linecap:butt;stroke-linejoin:miter;stroke:#000000;stroke-opacity:1;stroke-miterlimit:4;" d="M -0.00110452 9.001959 L 198.73328 9.001959 " transform="matrix(0,0.75,-0.75,0,205.204594,225.785985)"/><path style="fill:none;stroke-width:18;stroke-linecap:butt;stroke-linejoin:miter;stroke:#000000;stroke-opacity:1;stroke-miterlimit:4;" d="M 0.00125236 9.001323 L 198.730429 9.001323 " transform="matrix(0,0.75,-0.75,0,618.286148,224.979529)"/><g style="fill:#000000;fill-opacity:1;"><g transform="translate(370.371928, 164.296694)"><path style="stroke:none" d="M 48.796875 1.71875 C 35.972656 1.71875 25.789062 -0.992188 18.25 -6.421875 C 10.71875 -11.859375 5.945312 -19.539062 3.9375 -29.46875 L 21.859375 -37.828125 L 23.75 -37.5 C 25.769531 -30.894531 28.644531 -26.078125 32.375 -23.046875 C 36.113281 -20.015625 41.316406 -18.5 47.984375 -18.5 C 54.421875 -18.5 59.332031 -20 62.71875 -23 C 66.101562 -26.007812 67.796875 -30.378906 67.796875 -36.109375 C 67.796875 -41.734375 66.113281 -46.046875 62.75 -49.046875 C 59.394531 -52.046875 54.472656 -53.546875 47.984375 -53.546875 L 29.96875 -53.546875 L 29.96875 -71.96875 L 45.6875 -71.96875 C 51.039062 -71.96875 55.296875 -73.304688 58.453125 -75.984375 C 61.617188 -78.660156 63.203125 -82.484375 63.203125 -87.453125 C 63.203125 -92.359375 61.710938 -96.050781 58.734375 -98.53125 C 55.765625 -101.019531 51.660156 -102.265625 46.421875 -102.265625 C 41.078125 -102.265625 36.34375 -101.007812 32.21875 -98.5 C 28.09375 -95.988281 24.773438 -92.601562 22.265625 -88.34375 L 20.390625 -88.015625 L 7.9375 -102.515625 C 12.144531 -108.191406 17.550781 -112.757812 24.15625 -116.21875 C 30.757812 -119.6875 38.617188 -121.421875 47.734375 -121.421875 C 60.285156 -121.421875 69.863281 -118.800781 76.46875 -113.5625 C 83.070312 -108.320312 86.375 -100.953125 86.375 -91.453125 C 86.375 -85.722656 85.035156 -80.820312 82.359375 -76.75 C 79.691406 -72.6875 75.847656 -69.179688 70.828125 -66.234375 L 70.828125 -64.515625 C 84.640625 -59.660156 91.546875 -49.835938 91.546875 -35.046875 C 91.546875 -27.617188 89.960938 -21.148438 86.796875 -15.640625 C 83.628906 -10.128906 78.851562 -5.859375 72.46875 -2.828125 C 66.082031 0.203125 58.191406 1.71875 48.796875 1.71875 Z M 48.796875 1.71875 "/></g></g></g></svg>